<svg xmlns="http://www.w3.org/2000/svg" width="430" height="430"><path fill="#FFFACD" d="M0 0h430v430H0z"/><path fill="#aa5b71" d="M15 15h13v13H15zM28 15h13v13H28z"/><path fill="#aa5b71" d="M40 15h13v13H40z"/><path fill="#aa5b71" d="M52 15h13v13H52z"/><path fill="#aa5b71" d="M64 15h13v13H64z"/><path fill="#aa5b71" d="M76 15h13v13H76z"/><path fill="#aa5b71" d="M88 15h13v13H88z"/><path fill="#FFFACD" d="M103 19h7v7h-7z"/><path fill="#473C8B" d="M115 19h7v7h-7z"/><path fill="#FFFACD" d="M128 19h7v7h-7z"/><path fill="#473C8B" d="M140 19h7v7h-7zM152 19h7v7h-7z"/><path fill="#FFFACD" d="M164 19h7v7h-7zM176 19h7v7h-7z"/><path fill="#473C8B" d="M188 19h7v7h-7z"/><path fill="#FFFACD" d="M200 19h7v7h-7zM212 19h7v7h-7zM225 19h7v7h-7z"/><path fill="#473C8B" d="M237 19h7v7h-7z"/><path fill="#FFFACD" d="M249 19h7v7h-7zM261 19h7v7h-7z"/><path fill="#473C8B" d="M273 19h7v7h-7z"/><path fill="#FFFACD" d="M285 19h7v7h-7zM297 19h7v7h-7zM309 19h7v7h-7zM322 19h7v7h-7z"/><path fill="#269926" d="M331 15h13v13h-13z"/><path fill="#269926" d="M343 15h13v13h-13z"/><path fill="#269926" d="M355 15h13v13h-13z"/><path fill="#269926" d="M367 15h13v13h-13z"/><path fill="#269926" d="M379 15h13v13h-13z"/><path fill="#269926" d="M391 15h13v13h-13z"/><path fill="#269926" d="M403 15h13v13h-13z"/><path fill="#aa5b71" d="M15 28h13v13H15z"/><path fill="#FFFACD" d="M31 31h7v7h-7zM43 31h7v7h-7zM55 31h7v7h-7zM67 31h7v7h-7zM79 31h7v7h-7z"/><path fill="#aa5b71" d="M88 28h13v13H88z"/><path fill="#FFFACD" d="M103 31h7v7h-7zM115 31h7v7h-7zM128 31h7v7h-7z"/><path fill="#473C8B" d="M140 31h7v7h-7zM152 31h7v7h-7zM164 31h7v7h-7z"/><path fill="#FFFACD" d="M176 31h7v7h-7zM188 31h7v7h-7z"/><path fill="#473C8B" d="M200 31h7v7h-7z"/><path fill="#FFFACD" d="M212 31h7v7h-7z"/><path fill="#473C8B" d="M225 31h7v7h-7z"/><path fill="#FFFACD" d="M237 31h7v7h-7z"/><path fill="#473C8B" d="M249 31h7v7h-7zM261 31h7v7h-7z"/><path fill="#FFFACD" d="M273 31h7v7h-7z"/><path fill="#473C8B" d="M285 31h7v7h-7z"/><path fill="#FFFACD" d="M297 31h7v7h-7zM309 31h7v7h-7zM322 31h7v7h-7z"/><path fill="#269926" d="M331 28h13v13h-13z"/><path fill="#FFFACD" d="M346 31h7v7h-7zM358 31h7v7h-7zM370 31h7v7h-7zM382 31h7v7h-7zM394 31h7v7h-7z"/><path fill="#269926" d="M403 28h13v13h-13z"/><path fill="#aa5b71" d="M15 40h13v13H15z"/><path fill="#FFFACD" d="M31 43h7v7h-7z"/><path fill="#b7d28d" d="M40 40h13v13H40z"/><path fill="#b7d28d" d="M52 40h13v13H52z"/><path fill="#b7d28d" d="M64 40h13v13H64z"/><path fill="#FFFACD" d="M79 43h7v7h-7z"/><path fill="#aa5b71" d="M88 40h13v13H88z"/><path fill="#FFFACD" d="M103 43h7v7h-7z"/><path fill="#473C8B" d="M115 43h7v7h-7zM128 43h7v7h-7z"/><path fill="#FFFACD" d="M140 43h7v7h-7zM152 43h7v7h-7zM164 43h7v7h-7z"/><path fill="#473C8B" d="M176 43h7v7h-7zM188 43h7v7h-7zM200 43h7v7h-7z"/><path fill="#FFFACD" d="M212 43h7v7h-7zM225 43h7v7h-7zM237 43h7v7h-7zM249 43h7v7h-7zM261 43h7v7h-7z"/><path fill="#473C8B" d="M273 43h7v7h-7z"/><path fill="#FFFACD" d="M285 43h7v7h-7zM297 43h7v7h-7z"/><path fill="#473C8B" d="M309 43h7v7h-7z"/><path fill="#FFFACD" d="M322 43h7v7h-7z"/><path fill="#269926" d="M331 40h13v13h-13z"/><path fill="#FFFACD" d="M346 43h7v7h-7z"/><path fill="#BF3030" d="M355 40h13v13h-13z"/><path fill="#BF3030" d="M367 40h13v13h-13z"/><path fill="#BF3030" d="M379 40h13v13h-13z"/><path fill="#FFFACD" d="M394 43h7v7h-7z"/><path fill="#269926" d="M403 40h13v13h-13z"/><path fill="#aa5b71" d="M15 52h13v13H15z"/><path fill="#FFFACD" d="M31 55h7v7h-7z"/><path fill="#b7d28d" d="M40 52h13v13H40z"/><path fill="#b7d28d" d="M52 52h13v13H52z"/><path fill="#b7d28d" d="M64 52h13v13H64z"/><path fill="#FFFACD" d="M79 55h7v7h-7z"/><path fill="#aa5b71" d="M88 52h13v13H88z"/><path fill="#FFFACD" d="M103 55h7v7h-7zM115 55h7v7h-7z"/><path fill="#473C8B" d="M128 55h7v7h-7zM140 55h7v7h-7z"/><path fill="#FFFACD" d="M152 55h7v7h-7zM164 55h7v7h-7zM176 55h7v7h-7zM188 55h7v7h-7z"/><path fill="#473C8B" d="M200 55h7v7h-7z"/><path fill="#FFFACD" d="M212 55h7v7h-7z"/><path fill="#473C8B" d="M225 55h7v7h-7z"/><path fill="#FFFACD" d="M237 55h7v7h-7zM249 55h7v7h-7z"/><path fill="#473C8B" d="M261 55h7v7h-7zM273 55h7v7h-7zM285 55h7v7h-7z"/><path fill="#FFFACD" d="M297 55h7v7h-7z"/><path fill="#473C8B" d="M309 55h7v7h-7z"/><path fill="#FFFACD" d="M322 55h7v7h-7z"/><path fill="#269926" d="M331 52h13v13h-13z"/><path fill="#FFFACD" d="M346 55h7v7h-7z"/><path fill="#BF3030" d="M355 52h13v13h-13z"/><path fill="#BF3030" d="M367 52h13v13h-13z"/><path fill="#BF3030" d="M379 52h13v13h-13z"/><path fill="#FFFACD" d="M394 55h7v7h-7z"/><path fill="#269926" d="M403 52h13v13h-13z"/><path fill="#aa5b71" d="M15 64h13v13H15z"/><path fill="#FFFACD" d="M31 67h7v7h-7z"/><path fill="#b7d28d" d="M40 64h13v13H40z"/><path fill="#b7d28d" d="M52 64h13v13H52z"/><path fill="#b7d28d" d="M64 64h13v13H64z"/><path fill="#FFFACD" d="M79 67h7v7h-7z"/><path fill="#aa5b71" d="M88 64h13v13H88z"/><path fill="#FFFACD" d="M103 67h7v7h-7z"/><path fill="#473C8B" d="M115 67h7v7h-7z"/><path fill="#FFFACD" d="M128 67h7v7h-7zM140 67h7v7h-7z"/><path fill="#473C8B" d="M152 67h7v7h-7zM164 67h7v7h-7zM176 67h7v7h-7zM188 67h7v7h-7z"/><path fill="#FFFACD" d="M200 67h7v7h-7zM212 67h7v7h-7zM225 67h7v7h-7z"/><path fill="#473C8B" d="M237 67h7v7h-7zM249 67h7v7h-7z"/><path fill="#FFFACD" d="M261 67h7v7h-7z"/><path fill="#473C8B" d="M273 67h7v7h-7z"/><path fill="#FFFACD" d="M285 67h7v7h-7zM297 67h7v7h-7zM309 67h7v7h-7zM322 67h7v7h-7z"/><path fill="#269926" d="M331 64h13v13h-13z"/><path fill="#FFFACD" d="M346 67h7v7h-7z"/><path fill="#BF3030" d="M355 64h13v13h-13z"/><path fill="#BF3030" d="M367 64h13v13h-13z"/><path fill="#BF3030" d="M379 64h13v13h-13z"/><path fill="#FFFACD" d="M394 67h7v7h-7z"/><path fill="#269926" d="M403 64h13v13h-13z"/><path fill="#aa5b71" d="M15 76h13v13H15z"/><path fill="#FFFACD" d="M31 79h7v7h-7zM43 79h7v7h-7zM55 79h7v7h-7zM67 79h7v7h-7zM79 79h7v7h-7z"/><path fill="#aa5b71" d="M88 76h13v13H88z"/><path fill="#FFFACD" d="M103 79h7v7h-7zM115 79h7v7h-7z"/><path fill="#473C8B" d="M128 79h7v7h-7zM140 79h7v7h-7zM152 79h7v7h-7zM164 79h7v7h-7z"/><path fill="#FFFACD" d="M176 79h7v7h-7zM188 79h7v7h-7z"/><path fill="#473C8B" d="M200 79h7v7h-7zM212 79h7v7h-7z"/><path fill="#FFFACD" d="M225 79h7v7h-7zM237 79h7v7h-7z"/><path fill="#473C8B" d="M249 79h7v7h-7z"/><path fill="#FFFACD" d="M261 79h7v7h-7zM273 79h7v7h-7z"/><path fill="#473C8B" d="M285 79h7v7h-7zM297 79h7v7h-7zM309 79h7v7h-7z"/><path fill="#FFFACD" d="M322 79h7v7h-7z"/><path fill="#269926" d="M331 76h13v13h-13z"/><path fill="#FFFACD" d="M346 79h7v7h-7zM358 79h7v7h-7zM370 79h7v7h-7zM382 79h7v7h-7zM394 79h7v7h-7z"/><path fill="#269926" d="M403 76h13v13h-13z"/><path fill="#aa5b71" d="M15 88h13v13H15zM28 88h13v13H28z"/><path fill="#aa5b71" d="M40 88h13v13H40z"/><path fill="#aa5b71" d="M52 88h13v13H52z"/><path fill="#aa5b71" d="M64 88h13v13H64z"/><path fill="#aa5b71" d="M76 88h13v13H76z"/><path fill="#aa5b71" d="M88 88h13v13H88z"/><path fill="#FFFACD" d="M100 88h13v13h-13z"/><path fill="#f60" d="M112 88h13v13h-13z"/><path fill="#FFFACD" d="M125 88h13v13h-13z"/><path fill="#f60" d="M137 88h13v13h-13z"/><path fill="#FFFACD" d="M149 88h13v13h-13z"/><path fill="#f60" d="M161 88h13v13h-13z"/><path fill="#FFFACD" d="M173 88h13v13h-13z"/><path fill="#f60" d="M185 88h13v13h-13z"/><path fill="#FFFACD" d="M197 88h13v13h-13z"/><path fill="#f60" d="M209 88h13v13h-13z"/><path fill="#FFFACD" d="M222 88h13v13h-13z"/><path fill="#f60" d="M234 88h13v13h-13z"/><path fill="#FFFACD" d="M246 88h13v13h-13z"/><path fill="#f60" d="M258 88h13v13h-13z"/><path fill="#FFFACD" d="M270 88h13v13h-13z"/><path fill="#f60" d="M282 88h13v13h-13z"/><path fill="#FFFACD" d="M294 88h13v13h-13z"/><path fill="#f60" d="M306 88h13v13h-13z"/><path fill="#FFFACD" d="M319 88h13v13h-13z"/><path fill="#269926" d="M331 88h13v13h-13z"/><path fill="#269926" d="M343 88h13v13h-13z"/><path fill="#269926" d="M355 88h13v13h-13z"/><path fill="#269926" d="M367 88h13v13h-13z"/><path fill="#269926" d="M379 88h13v13h-13z"/><path fill="#269926" d="M391 88h13v13h-13z"/><path fill="#269926" d="M403 88h13v13h-13z"/><path fill="#FFFACD" d="M19 103h7v7h-7zM31 103h7v7h-7zM43 103h7v7h-7zM55 103h7v7h-7zM67 103h7v7h-7zM79 103h7v7h-7zM88 100h13v13H88zM103 103h7v7h-7z"/><path fill="#473C8B" d="M115 103h7v7h-7zM128 103h7v7h-7z"/><path fill="#FFFACD" d="M140 103h7v7h-7zM152 103h7v7h-7zM164 103h7v7h-7z"/><path fill="#473C8B" d="M176 103h7v7h-7zM188 103h7v7h-7z"/><path fill="#FFFACD" d="M200 103h7v7h-7z"/><path fill="#473C8B" d="M212 103h7v7h-7z"/><path fill="#FFFACD" d="M225 103h7v7h-7zM237 103h7v7h-7z"/><path fill="#473C8B" d="M249 103h7v7h-7z"/><path fill="#FFFACD" d="M261 103h7v7h-7zM273 103h7v7h-7zM285 103h7v7h-7z"/><path fill="#473C8B" d="M297 103h7v7h-7z"/><path fill="#FFFACD" d="M309 103h7v7h-7zM322 103h7v7h-7zM334 103h7v7h-7zM346 103h7v7h-7zM358 103h7v7h-7zM370 103h7v7h-7zM382 103h7v7h-7zM394 103h7v7h-7zM406 103h7v7h-7zM19 115h7v7h-7zM31 115h7v7h-7zM43 115h7v7h-7zM55 115h7v7h-7zM67 115h7v7h-7z"/><path fill="#473C8B" d="M79 115h7v7h-7z"/><path fill="#c03" d="M88 112h13v13H88z"/><path fill="#FFFACD" d="M103 115h7v7h-7zM115 115h7v7h-7z"/><path fill="#473C8B" d="M128 115h7v7h-7zM140 115h7v7h-7z"/><path fill="#FFFACD" d="M152 115h7v7h-7z"/><path fill="#473C8B" d="M164 115h7v7h-7z"/><path fill="#FFFACD" d="M176 115h7v7h-7zM188 115h7v7h-7z"/><path fill="#473C8B" d="M200 115h7v7h-7zM212 115h7v7h-7zM225 115h7v7h-7zM237 115h7v7h-7z"/><path fill="#FFFACD" d="M249 115h7v7h-7z"/><path fill="#473C8B" d="M261 115h7v7h-7z"/><path fill="#FFFACD" d="M273 115h7v7h-7z"/><path fill="#473C8B" d="M285 115h7v7h-7zM297 115h7v7h-7z"/><path fill="#FFFACD" d="M309 115h7v7h-7zM322 115h7v7h-7z"/><path fill="#473C8B" d="M334 115h7v7h-7z"/><path fill="#FFFACD" d="M346 115h7v7h-7z"/><path fill="#473C8B" d="M358 115h7v7h-7z"/><path fill="#FFFACD" d="M370 115h7v7h-7z"/><path fill="#473C8B" d="M382 115h7v7h-7z"/><path fill="#FFFACD" d="M394 115h7v7h-7z"/><path fill="#473C8B" d="M406 115h7v7h-7zM19 128h7v7h-7z"/><path fill="#FFFACD" d="M31 128h7v7h-7zM43 128h7v7h-7zM55 128h7v7h-7zM67 128h7v7h-7zM79 128h7v7h-7zM88 125h13v13H88z"/><path fill="#473C8B" d="M103 128h7v7h-7z"/><path fill="#FFFACD" d="M115 128h7v7h-7z"/><path fill="#473C8B" d="M128 128h7v7h-7z"/><path fill="#FFFACD" d="M140 128h7v7h-7zM152 128h7v7h-7z"/><path fill="#473C8B" d="M164 128h7v7h-7zM176 128h7v7h-7zM188 128h7v7h-7zM200 128h7v7h-7zM212 128h7v7h-7z"/><path fill="#FFFACD" d="M225 128h7v7h-7zM237 128h7v7h-7zM249 128h7v7h-7z"/><path fill="#473C8B" d="M261 128h7v7h-7z"/><path fill="#FFFACD" d="M273 128h7v7h-7z"/><path fill="#473C8B" d="M285 128h7v7h-7zM297 128h7v7h-7z"/><path fill="#FFFACD" d="M309 128h7v7h-7zM322 128h7v7h-7zM334 128h7v7h-7zM346 128h7v7h-7z"/><path fill="#473C8B" d="M358 128h7v7h-7zM370 128h7v7h-7z"/><path fill="#FFFACD" d="M382 128h7v7h-7z"/><path fill="#473C8B" d="M394 128h7v7h-7z"/><path fill="#FFFACD" d="M406 128h7v7h-7z"/><path fill="#473C8B" d="M19 140h7v7h-7z"/><path fill="#FFFACD" d="M31 140h7v7h-7z"/><path fill="#473C8B" d="M43 140h7v7h-7zM55 140h7v7h-7z"/><path fill="#FFFACD" d="M67 140h7v7h-7z"/><path fill="#473C8B" d="M79 140h7v7h-7z"/><path fill="#c03" d="M88 137h13v13H88z"/><path fill="#473C8B" d="M103 140h7v7h-7z"/><path fill="#FFFACD" d="M115 140h7v7h-7z"/><path fill="#473C8B" d="M128 140h7v7h-7z"/><path fill="#FFFACD" d="M140 140h7v7h-7zM152 140h7v7h-7z"/><path fill="#473C8B" d="M164 140h7v7h-7zM176 140h7v7h-7z"/><path fill="#FFFACD" d="M188 140h7v7h-7zM200 140h7v7h-7z"/><path fill="#473C8B" d="M212 140h7v7h-7zM225 140h7v7h-7zM237 140h7v7h-7zM249 140h7v7h-7zM261 140h7v7h-7zM273 140h7v7h-7z"/><path fill="#FFFACD" d="M285 140h7v7h-7zM297 140h7v7h-7zM309 140h7v7h-7zM322 140h7v7h-7z"/><path fill="#473C8B" d="M334 140h7v7h-7z"/><path fill="#FFFACD" d="M346 140h7v7h-7z"/><path fill="#473C8B" d="M358 140h7v7h-7z"/><path fill="#FFFACD" d="M370 140h7v7h-7zM382 140h7v7h-7z"/><path fill="#473C8B" d="M394 140h7v7h-7z"/><path fill="#FFFACD" d="M406 140h7v7h-7zM19 152h7v7h-7z"/><path fill="#473C8B" d="M31 152h7v7h-7z"/><path fill="#FFFACD" d="M43 152h7v7h-7zM55 152h7v7h-7zM67 152h7v7h-7zM79 152h7v7h-7zM88 149h13v13H88zM103 152h7v7h-7zM115 152h7v7h-7z"/><path fill="#473C8B" d="M128 152h7v7h-7z"/><path fill="#FFFACD" d="M140 152h7v7h-7zM152 152h7v7h-7z"/><path fill="#473C8B" d="M164 152h7v7h-7zM176 152h7v7h-7z"/><path fill="#FFFACD" d="M188 152h7v7h-7z"/><path fill="#473C8B" d="M200 152h7v7h-7z"/><path fill="#FFFACD" d="M212 152h7v7h-7z"/><path fill="#473C8B" d="M225 152h7v7h-7z"/><path fill="#FFFACD" d="M237 152h7v7h-7z"/><path fill="#473C8B" d="M249 152h7v7h-7z"/><path fill="#FFFACD" d="M261 152h7v7h-7zM273 152h7v7h-7z"/><path fill="#473C8B" d="M285 152h7v7h-7z"/><path fill="#FFFACD" d="M297 152h7v7h-7z"/><path fill="#473C8B" d="M309 152h7v7h-7z"/><path fill="#FFFACD" d="M322 152h7v7h-7z"/><path fill="#473C8B" d="M334 152h7v7h-7zM346 152h7v7h-7z"/><path fill="#FFFACD" d="M358 152h7v7h-7zM370 152h7v7h-7z"/><path fill="#473C8B" d="M382 152h7v7h-7z"/><path fill="#FFFACD" d="M394 152h7v7h-7zM406 152h7v7h-7zM19 164h7v7h-7zM31 164h7v7h-7z"/><path fill="#473C8B" d="M43 164h7v7h-7z"/><path fill="#FFFACD" d="M55 164h7v7h-7zM67 164h7v7h-7z"/><path fill="#473C8B" d="M79 164h7v7h-7z"/><path fill="#c03" d="M88 161h13v13H88z"/><path fill="#FFFACD" d="M103 164h7v7h-7z"/><path fill="#473C8B" d="M115 164h7v7h-7z"/><path fill="#FFFACD" d="M128 164h7v7h-7z"/><path fill="#473C8B" d="M140 164h7v7h-7z"/><path fill="#FFFACD" d="M152 164h7v7h-7zM164 164h7v7h-7zM176 164h7v7h-7z"/><path fill="#473C8B" d="M188 164h7v7h-7zM200 164h7v7h-7zM212 164h7v7h-7zM225 164h7v7h-7z"/><path fill="#FFFACD" d="M237 164h7v7h-7zM249 164h7v7h-7zM261 164h7v7h-7z"/><path fill="#473C8B" d="M273 164h7v7h-7zM285 164h7v7h-7zM297 164h7v7h-7z"/><path fill="#FFFACD" d="M309 164h7v7h-7zM322 164h7v7h-7z"/><path fill="#473C8B" d="M334 164h7v7h-7z"/><path fill="#FFFACD" d="M346 164h7v7h-7z"/><path fill="#473C8B" d="M358 164h7v7h-7zM370 164h7v7h-7z"/><path fill="#FFFACD" d="M382 164h7v7h-7z"/><path fill="#473C8B" d="M394 164h7v7h-7zM406 164h7v7h-7zM19 176h7v7h-7z"/><path fill="#FFFACD" d="M31 176h7v7h-7z"/><path fill="#473C8B" d="M43 176h7v7h-7z"/><path fill="#FFFACD" d="M55 176h7v7h-7z"/><path fill="#473C8B" d="M67 176h7v7h-7zM79 176h7v7h-7z"/><path fill="#FFFACD" d="M88 173h13v13H88zM103 176h7v7h-7z"/><path fill="#473C8B" d="M115 176h7v7h-7zM128 176h7v7h-7z"/><path fill="#FFFACD" d="M140 176h7v7h-7z"/><path fill="#473C8B" d="M152 176h7v7h-7z"/><path fill="#FFFACD" d="M164 176h7v7h-7z"/><path fill="#473C8B" d="M176 176h7v7h-7z"/><path fill="#FFFACD" d="M188 176h7v7h-7z"/><path fill="#473C8B" d="M200 176h7v7h-7zM212 176h7v7h-7z"/><path fill="#FFFACD" d="M225 176h7v7h-7z"/><path fill="#473C8B" d="M237 176h7v7h-7z"/><path fill="#FFFACD" d="M249 176h7v7h-7zM261 176h7v7h-7zM273 176h7v7h-7z"/><path fill="#473C8B" d="M285 176h7v7h-7zM297 176h7v7h-7z"/><path fill="#FFFACD" d="M309 176h7v7h-7zM322 176h7v7h-7z"/><path fill="#473C8B" d="M334 176h7v7h-7z"/><path fill="#FFFACD" d="M346 176h7v7h-7zM358 176h7v7h-7z"/><path fill="#473C8B" d="M370 176h7v7h-7z"/><path fill="#FFFACD" d="M382 176h7v7h-7z"/><path fill="#473C8B" d="M394 176h7v7h-7zM406 176h7v7h-7zM19 188h7v7h-7z"/><path fill="#FFFACD" d="M31 188h7v7h-7zM43 188h7v7h-7zM55 188h7v7h-7zM67 188h7v7h-7z"/><path fill="#473C8B" d="M79 188h7v7h-7z"/><path fill="#c03" d="M88 185h13v13H88z"/><path fill="#FFFACD" d="M103 188h7v7h-7z"/><path fill="#473C8B" d="M115 188h7v7h-7z"/><path fill="#FFFACD" d="M128 188h7v7h-7z"/><path fill="#473C8B" d="M140 188h7v7h-7z"/><path fill="#FFFACD" d="M152 188h7v7h-7z"/><path fill="#473C8B" d="M164 188h7v7h-7zM176 188h7v7h-7z"/><path fill="#FFFACD" d="M188 188h7v7h-7zM200 188h7v7h-7zM212 188h7v7h-7z"/><path fill="#473C8B" d="M225 188h7v7h-7zM237 188h7v7h-7zM249 188h7v7h-7zM261 188h7v7h-7z"/><path fill="#FFFACD" d="M273 188h7v7h-7zM285 188h7v7h-7zM297 188h7v7h-7zM309 188h7v7h-7z"/><path fill="#473C8B" d="M322 188h7v7h-7zM334 188h7v7h-7z"/><path fill="#FFFACD" d="M346 188h7v7h-7zM358 188h7v7h-7zM370 188h7v7h-7zM382 188h7v7h-7z"/><path fill="#473C8B" d="M394 188h7v7h-7z"/><path fill="#FFFACD" d="M406 188h7v7h-7z"/><path fill="#473C8B" d="M19 200h7v7h-7zM31 200h7v7h-7z"/><path fill="#FFFACD" d="M43 200h7v7h-7z"/><path fill="#473C8B" d="M55 200h7v7h-7z"/><path fill="#FFFACD" d="M67 200h7v7h-7zM79 200h7v7h-7zM88 197h13v13H88zM103 200h7v7h-7z"/><path fill="#473C8B" d="M115 200h7v7h-7zM128 200h7v7h-7zM140 200h7v7h-7zM152 200h7v7h-7z"/><path fill="#FFFACD" d="M164 200h7v7h-7zM176 200h7v7h-7zM188 200h7v7h-7z"/><path fill="#473C8B" d="M200 200h7v7h-7zM212 200h7v7h-7zM225 200h7v7h-7z"/><path fill="#FFFACD" d="M237 200h7v7h-7z"/><path fill="#473C8B" d="M249 200h7v7h-7zM261 200h7v7h-7z"/><path fill="#FFFACD" d="M273 200h7v7h-7zM285 200h7v7h-7z"/><path fill="#473C8B" d="M297 200h7v7h-7zM309 200h7v7h-7zM322 200h7v7h-7z"/><path fill="#FFFACD" d="M334 200h7v7h-7zM346 200h7v7h-7z"/><path fill="#473C8B" d="M358 200h7v7h-7z"/><path fill="#FFFACD" d="M370 200h7v7h-7z"/><path fill="#473C8B" d="M382 200h7v7h-7zM394 200h7v7h-7z"/><path fill="#FFFACD" d="M406 200h7v7h-7zM19 212h7v7h-7zM31 212h7v7h-7z"/><path fill="#473C8B" d="M43 212h7v7h-7z"/><path fill="#FFFACD" d="M55 212h7v7h-7zM67 212h7v7h-7zM79 212h7v7h-7z"/><path fill="#c03" d="M88 209h13v13H88z"/><path fill="#473C8B" d="M103 212h7v7h-7zM115 212h7v7h-7zM128 212h7v7h-7zM140 212h7v7h-7z"/><path fill="#FFFACD" d="M152 212h7v7h-7zM164 212h7v7h-7z"/><path fill="#473C8B" d="M176 212h7v7h-7zM188 212h7v7h-7z"/><path fill="#FFFACD" d="M200 212h7v7h-7zM212 212h7v7h-7z"/><path fill="#473C8B" d="M225 212h7v7h-7zM237 212h7v7h-7z"/><path fill="#FFFACD" d="M249 212h7v7h-7zM261 212h7v7h-7zM273 212h7v7h-7z"/><path fill="#473C8B" d="M285 212h7v7h-7z"/><path fill="#FFFACD" d="M297 212h7v7h-7z"/><path fill="#473C8B" d="M309 212h7v7h-7zM322 212h7v7h-7z"/><path fill="#FFFACD" d="M334 212h7v7h-7z"/><path fill="#473C8B" d="M346 212h7v7h-7zM358 212h7v7h-7z"/><path fill="#FFFACD" d="M370 212h7v7h-7z"/><path fill="#473C8B" d="M382 212h7v7h-7z"/><path fill="#FFFACD" d="M394 212h7v7h-7z"/><path fill="#473C8B" d="M406 212h7v7h-7zM19 225h7v7h-7zM31 225h7v7h-7z"/><path fill="#FFFACD" d="M43 225h7v7h-7z"/><path fill="#473C8B" d="M55 225h7v7h-7z"/><path fill="#FFFACD" d="M67 225h7v7h-7z"/><path fill="#473C8B" d="M79 225h7v7h-7z"/><path fill="#FFFACD" d="M88 222h13v13H88z"/><path fill="#473C8B" d="M103 225h7v7h-7zM115 225h7v7h-7z"/><path fill="#FFFACD" d="M128 225h7v7h-7zM140 225h7v7h-7z"/><path fill="#473C8B" d="M152 225h7v7h-7zM164 225h7v7h-7z"/><path fill="#FFFACD" d="M176 225h7v7h-7z"/><path fill="#473C8B" d="M188 225h7v7h-7zM200 225h7v7h-7z"/><path fill="#FFFACD" d="M212 225h7v7h-7zM225 225h7v7h-7zM237 225h7v7h-7z"/><path fill="#473C8B" d="M249 225h7v7h-7zM261 225h7v7h-7zM273 225h7v7h-7zM285 225h7v7h-7zM297 225h7v7h-7z"/><path fill="#FFFACD" d="M309 225h7v7h-7zM322 225h7v7h-7z"/><path fill="#473C8B" d="M334 225h7v7h-7zM346 225h7v7h-7z"/><path fill="#FFFACD" d="M358 225h7v7h-7z"/><path fill="#473C8B" d="M370 225h7v7h-7zM382 225h7v7h-7z"/><path fill="#FFFACD" d="M394 225h7v7h-7z"/><path fill="#473C8B" d="M406 225h7v7h-7zM19 237h7v7h-7zM31 237h7v7h-7z"/><path fill="#FFFACD" d="M43 237h7v7h-7z"/><path fill="#473C8B" d="M55 237h7v7h-7zM67 237h7v7h-7zM79 237h7v7h-7z"/><path fill="#c03" d="M88 234h13v13H88z"/><path fill="#473C8B" d="M103 237h7v7h-7z"/><path fill="#FFFACD" d="M115 237h7v7h-7z"/><path fill="#473C8B" d="M128 237h7v7h-7z"/><path fill="#FFFACD" d="M140 237h7v7h-7z"/><path fill="#473C8B" d="M152 237h7v7h-7zM164 237h7v7h-7zM176 237h7v7h-7z"/><path fill="#FFFACD" d="M188 237h7v7h-7zM200 237h7v7h-7zM212 237h7v7h-7zM225 237h7v7h-7z"/><path fill="#473C8B" d="M237 237h7v7h-7zM249 237h7v7h-7zM261 237h7v7h-7z"/><path fill="#FFFACD" d="M273 237h7v7h-7zM285 237h7v7h-7z"/><path fill="#473C8B" d="M297 237h7v7h-7z"/><path fill="#FFFACD" d="M309 237h7v7h-7zM322 237h7v7h-7zM334 237h7v7h-7z"/><path fill="#473C8B" d="M346 237h7v7h-7zM358 237h7v7h-7z"/><path fill="#FFFACD" d="M370 237h7v7h-7zM382 237h7v7h-7zM394 237h7v7h-7z"/><path fill="#473C8B" d="M406 237h7v7h-7z"/><path fill="#FFFACD" d="M19 249h7v7h-7z"/><path fill="#473C8B" d="M31 249h7v7h-7z"/><path fill="#FFFACD" d="M43 249h7v7h-7z"/><path fill="#473C8B" d="M55 249h7v7h-7zM67 249h7v7h-7z"/><path fill="#FFFACD" d="M79 249h7v7h-7zM88 246h13v13H88z"/><path fill="#473C8B" d="M103 249h7v7h-7zM115 249h7v7h-7zM128 249h7v7h-7z"/><path fill="#FFFACD" d="M140 249h7v7h-7zM152 249h7v7h-7zM164 249h7v7h-7z"/><path fill="#473C8B" d="M176 249h7v7h-7z"/><path fill="#FFFACD" d="M188 249h7v7h-7zM200 249h7v7h-7z"/><path fill="#473C8B" d="M212 249h7v7h-7z"/><path fill="#FFFACD" d="M225 249h7v7h-7zM237 249h7v7h-7z"/><path fill="#473C8B" d="M249 249h7v7h-7z"/><path fill="#FFFACD" d="M261 249h7v7h-7zM273 249h7v7h-7zM285 249h7v7h-7zM297 249h7v7h-7zM309 249h7v7h-7zM322 249h7v7h-7z"/><path fill="#473C8B" d="M334 249h7v7h-7zM346 249h7v7h-7z"/><path fill="#FFFACD" d="M358 249h7v7h-7z"/><path fill="#473C8B" d="M370 249h7v7h-7zM382 249h7v7h-7zM394 249h7v7h-7zM406 249h7v7h-7z"/><path fill="#FFFACD" d="M19 261h7v7h-7zM31 261h7v7h-7z"/><path fill="#473C8B" d="M43 261h7v7h-7z"/><path fill="#FFFACD" d="M55 261h7v7h-7zM67 261h7v7h-7z"/><path fill="#473C8B" d="M79 261h7v7h-7z"/><path fill="#c03" d="M88 258h13v13H88z"/><path fill="#FFFACD" d="M103 261h7v7h-7zM115 261h7v7h-7zM128 261h7v7h-7z"/><path fill="#473C8B" d="M140 261h7v7h-7z"/><path fill="#FFFACD" d="M152 261h7v7h-7z"/><path fill="#473C8B" d="M164 261h7v7h-7zM176 261h7v7h-7zM188 261h7v7h-7zM200 261h7v7h-7zM212 261h7v7h-7z"/><path fill="#FFFACD" d="M225 261h7v7h-7z"/><path fill="#473C8B" d="M237 261h7v7h-7zM249 261h7v7h-7z"/><path fill="#FFFACD" d="M261 261h7v7h-7zM273 261h7v7h-7z"/><path fill="#473C8B" d="M285 261h7v7h-7z"/><path fill="#FFFACD" d="M297 261h7v7h-7zM309 261h7v7h-7z"/><path fill="#473C8B" d="M322 261h7v7h-7zM334 261h7v7h-7zM346 261h7v7h-7zM358 261h7v7h-7zM370 261h7v7h-7z"/><path fill="#FFFACD" d="M382 261h7v7h-7z"/><path fill="#473C8B" d="M394 261h7v7h-7zM406 261h7v7h-7zM19 273h7v7h-7z"/><path fill="#FFFACD" d="M31 273h7v7h-7zM43 273h7v7h-7zM55 273h7v7h-7z"/><path fill="#473C8B" d="M67 273h7v7h-7zM79 273h7v7h-7z"/><path fill="#FFFACD" d="M88 270h13v13H88zM103 273h7v7h-7zM115 273h7v7h-7z"/><path fill="#473C8B" d="M128 273h7v7h-7z"/><path fill="#FFFACD" d="M140 273h7v7h-7zM152 273h7v7h-7z"/><path fill="#473C8B" d="M164 273h7v7h-7z"/><path fill="#FFFACD" d="M176 273h7v7h-7zM188 273h7v7h-7zM200 273h7v7h-7zM212 273h7v7h-7z"/><path fill="#473C8B" d="M225 273h7v7h-7z"/><path fill="#FFFACD" d="M237 273h7v7h-7z"/><path fill="#473C8B" d="M249 273h7v7h-7zM261 273h7v7h-7zM273 273h7v7h-7zM285 273h7v7h-7z"/><path fill="#FFFACD" d="M297 273h7v7h-7z"/><path fill="#473C8B" d="M309 273h7v7h-7z"/><path fill="#FFFACD" d="M322 273h7v7h-7z"/><path fill="#473C8B" d="M334 273h7v7h-7zM346 273h7v7h-7zM358 273h7v7h-7z"/><path fill="#FFFACD" d="M370 273h7v7h-7z"/><path fill="#473C8B" d="M382 273h7v7h-7z"/><path fill="#FFFACD" d="M394 273h7v7h-7zM406 273h7v7h-7z"/><path fill="#473C8B" d="M19 285h7v7h-7z"/><path fill="#FFFACD" d="M31 285h7v7h-7z"/><path fill="#473C8B" d="M43 285h7v7h-7z"/><path fill="#FFFACD" d="M55 285h7v7h-7zM67 285h7v7h-7zM79 285h7v7h-7z"/><path fill="#c03" d="M88 282h13v13H88z"/><path fill="#FFFACD" d="M103 285h7v7h-7z"/><path fill="#473C8B" d="M115 285h7v7h-7z"/><path fill="#FFFACD" d="M128 285h7v7h-7zM140 285h7v7h-7zM152 285h7v7h-7zM164 285h7v7h-7zM176 285h7v7h-7z"/><path fill="#473C8B" d="M188 285h7v7h-7zM200 285h7v7h-7z"/><path fill="#FFFACD" d="M212 285h7v7h-7z"/><path fill="#473C8B" d="M225 285h7v7h-7zM237 285h7v7h-7zM249 285h7v7h-7z"/><path fill="#FFFACD" d="M261 285h7v7h-7z"/><path fill="#473C8B" d="M273 285h7v7h-7z"/><path fill="#FFFACD" d="M285 285h7v7h-7zM297 285h7v7h-7zM309 285h7v7h-7z"/><path fill="#473C8B" d="M322 285h7v7h-7zM334 285h7v7h-7z"/><path fill="#FFFACD" d="M346 285h7v7h-7z"/><path fill="#473C8B" d="M358 285h7v7h-7z"/><path fill="#FFFACD" d="M370 285h7v7h-7zM382 285h7v7h-7z"/><path fill="#473C8B" d="M394 285h7v7h-7z"/><path fill="#FFFACD" d="M406 285h7v7h-7z"/><path fill="#473C8B" d="M19 297h7v7h-7z"/><path fill="#FFFACD" d="M31 297h7v7h-7zM43 297h7v7h-7zM55 297h7v7h-7zM67 297h7v7h-7z"/><path fill="#473C8B" d="M79 297h7v7h-7z"/><path fill="#FFFACD" d="M88 294h13v13H88z"/><path fill="#473C8B" d="M103 297h7v7h-7zM115 297h7v7h-7zM128 297h7v7h-7z"/><path fill="#FFFACD" d="M140 297h7v7h-7zM152 297h7v7h-7zM164 297h7v7h-7z"/><path fill="#473C8B" d="M176 297h7v7h-7zM188 297h7v7h-7z"/><path fill="#FFFACD" d="M200 297h7v7h-7z"/><path fill="#473C8B" d="M212 297h7v7h-7z"/><path fill="#FFFACD" d="M225 297h7v7h-7zM237 297h7v7h-7z"/><path fill="#473C8B" d="M249 297h7v7h-7z"/><path fill="#FFFACD" d="M261 297h7v7h-7zM273 297h7v7h-7z"/><path fill="#473C8B" d="M285 297h7v7h-7z"/><path fill="#FFFACD" d="M297 297h7v7h-7z"/><path fill="#473C8B" d="M309 297h7v7h-7z"/><path fill="#FFFACD" d="M322 297h7v7h-7z"/><path fill="#473C8B" d="M334 297h7v7h-7zM346 297h7v7h-7zM358 297h7v7h-7zM370 297h7v7h-7zM382 297h7v7h-7zM394 297h7v7h-7zM406 297h7v7h-7zM19 309h7v7h-7zM31 309h7v7h-7z"/><path fill="#FFFACD" d="M43 309h7v7h-7z"/><path fill="#473C8B" d="M55 309h7v7h-7zM67 309h7v7h-7z"/><path fill="#FFFACD" d="M79 309h7v7h-7z"/><path fill="#c03" d="M88 306h13v13H88z"/><path fill="#FFFACD" d="M103 309h7v7h-7z"/><path fill="#473C8B" d="M115 309h7v7h-7zM128 309h7v7h-7z"/><path fill="#FFFACD" d="M140 309h7v7h-7zM152 309h7v7h-7z"/><path fill="#473C8B" d="M164 309h7v7h-7z"/><path fill="#FFFACD" d="M176 309h7v7h-7zM188 309h7v7h-7zM200 309h7v7h-7z"/><path fill="#473C8B" d="M212 309h7v7h-7z"/><path fill="#FFFACD" d="M225 309h7v7h-7zM237 309h7v7h-7z"/><path fill="#473C8B" d="M249 309h7v7h-7zM261 309h7v7h-7z"/><path fill="#FFFACD" d="M273 309h7v7h-7zM285 309h7v7h-7z"/><path fill="#473C8B" d="M297 309h7v7h-7z"/><path fill="#B03060" d="M306 306h13v13h-13zM319 306h13v13h-13z"/><path fill="#B03060" d="M331 306h13v13h-13z"/><path fill="#B03060" d="M343 306h13v13h-13z"/><path fill="#B03060" d="M355 306h13v13h-13z"/><path fill="#473C8B" d="M370 309h7v7h-7z"/><path fill="#FFFACD" d="M382 309h7v7h-7z"/><path fill="#473C8B" d="M394 309h7v7h-7zM406 309h7v7h-7z"/><path fill="#FFFACD" d="M19 322h7v7h-7zM31 322h7v7h-7zM43 322h7v7h-7zM55 322h7v7h-7zM67 322h7v7h-7zM79 322h7v7h-7zM88 319h13v13H88zM103 322h7v7h-7z"/><path fill="#473C8B" d="M115 322h7v7h-7z"/><path fill="#FFFACD" d="M128 322h7v7h-7zM140 322h7v7h-7zM152 322h7v7h-7z"/><path fill="#473C8B" d="M164 322h7v7h-7z"/><path fill="#FFFACD" d="M176 322h7v7h-7zM188 322h7v7h-7zM200 322h7v7h-7z"/><path fill="#473C8B" d="M212 322h7v7h-7z"/><path fill="#FFFACD" d="M225 322h7v7h-7zM237 322h7v7h-7z"/><path fill="#473C8B" d="M249 322h7v7h-7zM261 322h7v7h-7zM273 322h7v7h-7z"/><path fill="#FFFACD" d="M285 322h7v7h-7zM297 322h7v7h-7z"/><path fill="#B03060" d="M306 319h13v13h-13z"/><path fill="#FFFACD" d="M322 322h7v7h-7zM334 322h7v7h-7zM346 322h7v7h-7z"/><path fill="#B03060" d="M355 319h13v13h-13z"/><path fill="#473C8B" d="M370 322h7v7h-7z"/><path fill="#FFFACD" d="M382 322h7v7h-7z"/><path fill="#473C8B" d="M394 322h7v7h-7zM406 322h7v7h-7z"/><path fill="#269926" d="M15 331h13v13H15zM28 331h13v13H28z"/><path fill="#269926" d="M40 331h13v13H40z"/><path fill="#269926" d="M52 331h13v13H52z"/><path fill="#269926" d="M64 331h13v13H64z"/><path fill="#269926" d="M76 331h13v13H76z"/><path fill="#269926" d="M88 331h13v13H88z"/><path fill="#FFFACD" d="M103 334h7v7h-7zM115 334h7v7h-7zM128 334h7v7h-7zM140 334h7v7h-7z"/><path fill="#473C8B" d="M152 334h7v7h-7zM164 334h7v7h-7z"/><path fill="#FFFACD" d="M176 334h7v7h-7z"/><path fill="#473C8B" d="M188 334h7v7h-7z"/><path fill="#FFFACD" d="M200 334h7v7h-7zM212 334h7v7h-7zM225 334h7v7h-7z"/><path fill="#473C8B" d="M237 334h7v7h-7z"/><path fill="#FFFACD" d="M249 334h7v7h-7z"/><path fill="#473C8B" d="M261 334h7v7h-7z"/><path fill="#FFFACD" d="M273 334h7v7h-7z"/><path fill="#473C8B" d="M285 334h7v7h-7zM297 334h7v7h-7z"/><path fill="#B03060" d="M306 331h13v13h-13z"/><path fill="#FFFACD" d="M322 334h7v7h-7z"/><path fill="#009ACD" d="M331 331h13v13h-13z"/><path fill="#FFFACD" d="M346 334h7v7h-7z"/><path fill="#B03060" d="M355 331h13v13h-13z"/><path fill="#473C8B" d="M370 334h7v7h-7z"/><path fill="#FFFACD" d="M382 334h7v7h-7z"/><path fill="#473C8B" d="M394 334h7v7h-7z"/><path fill="#FFFACD" d="M406 334h7v7h-7z"/><path fill="#269926" d="M15 343h13v13H15z"/><path fill="#FFFACD" d="M31 346h7v7h-7zM43 346h7v7h-7zM55 346h7v7h-7zM67 346h7v7h-7zM79 346h7v7h-7z"/><path fill="#269926" d="M88 343h13v13H88z"/><path fill="#FFFACD" d="M103 346h7v7h-7z"/><path fill="#473C8B" d="M115 346h7v7h-7zM128 346h7v7h-7z"/><path fill="#FFFACD" d="M140 346h7v7h-7z"/><path fill="#473C8B" d="M152 346h7v7h-7z"/><path fill="#FFFACD" d="M164 346h7v7h-7zM176 346h7v7h-7z"/><path fill="#473C8B" d="M188 346h7v7h-7z"/><path fill="#FFFACD" d="M200 346h7v7h-7z"/><path fill="#473C8B" d="M212 346h7v7h-7z"/><path fill="#FFFACD" d="M225 346h7v7h-7zM237 346h7v7h-7zM249 346h7v7h-7zM261 346h7v7h-7z"/><path fill="#473C8B" d="M273 346h7v7h-7zM285 346h7v7h-7zM297 346h7v7h-7z"/><path fill="#B03060" d="M306 343h13v13h-13z"/><path fill="#FFFACD" d="M322 346h7v7h-7zM334 346h7v7h-7zM346 346h7v7h-7z"/><path fill="#B03060" d="M355 343h13v13h-13z"/><path fill="#473C8B" d="M370 346h7v7h-7zM382 346h7v7h-7zM394 346h7v7h-7zM406 346h7v7h-7z"/><path fill="#269926" d="M15 355h13v13H15z"/><path fill="#FFFACD" d="M31 358h7v7h-7z"/><path fill="#BF3030" d="M40 355h13v13H40z"/><path fill="#BF3030" d="M52 355h13v13H52z"/><path fill="#BF3030" d="M64 355h13v13H64z"/><path fill="#FFFACD" d="M79 358h7v7h-7z"/><path fill="#269926" d="M88 355h13v13H88z"/><path fill="#FFFACD" d="M103 358h7v7h-7zM115 358h7v7h-7zM128 358h7v7h-7zM140 358h7v7h-7z"/><path fill="#473C8B" d="M152 358h7v7h-7zM164 358h7v7h-7zM176 358h7v7h-7z"/><path fill="#FFFACD" d="M188 358h7v7h-7zM200 358h7v7h-7z"/><path fill="#473C8B" d="M212 358h7v7h-7zM225 358h7v7h-7z"/><path fill="#FFFACD" d="M237 358h7v7h-7z"/><path fill="#473C8B" d="M249 358h7v7h-7z"/><path fill="#FFFACD" d="M261 358h7v7h-7z"/><path fill="#473C8B" d="M273 358h7v7h-7zM285 358h7v7h-7z"/><path fill="#FFFACD" d="M297 358h7v7h-7z"/><path fill="#B03060" d="M306 355h13v13h-13zM319 355h13v13h-13z"/><path fill="#B03060" d="M331 355h13v13h-13z"/><path fill="#B03060" d="M343 355h13v13h-13z"/><path fill="#B03060" d="M355 355h13v13h-13z"/><path fill="#FFFACD" d="M370 358h7v7h-7zM382 358h7v7h-7zM394 358h7v7h-7z"/><path fill="#473C8B" d="M406 358h7v7h-7z"/><path fill="#269926" d="M15 367h13v13H15z"/><path fill="#FFFACD" d="M31 370h7v7h-7z"/><path fill="#BF3030" d="M40 367h13v13H40z"/><path fill="#BF3030" d="M52 367h13v13H52z"/><path fill="#BF3030" d="M64 367h13v13H64z"/><path fill="#FFFACD" d="M79 370h7v7h-7z"/><path fill="#269926" d="M88 367h13v13H88z"/><path fill="#FFFACD" d="M103 370h7v7h-7zM115 370h7v7h-7zM128 370h7v7h-7zM140 370h7v7h-7zM152 370h7v7h-7zM164 370h7v7h-7z"/><path fill="#473C8B" d="M176 370h7v7h-7zM188 370h7v7h-7z"/><path fill="#FFFACD" d="M200 370h7v7h-7zM212 370h7v7h-7zM225 370h7v7h-7zM237 370h7v7h-7zM249 370h7v7h-7z"/><path fill="#473C8B" d="M261 370h7v7h-7z"/><path fill="#FFFACD" d="M273 370h7v7h-7zM285 370h7v7h-7zM297 370h7v7h-7zM309 370h7v7h-7z"/><path fill="#473C8B" d="M322 370h7v7h-7z"/><path fill="#FFFACD" d="M334 370h7v7h-7z"/><path fill="#473C8B" d="M346 370h7v7h-7zM358 370h7v7h-7zM370 370h7v7h-7z"/><path fill="#FFFACD" d="M382 370h7v7h-7z"/><path fill="#473C8B" d="M394 370h7v7h-7z"/><path fill="#FFFACD" d="M406 370h7v7h-7z"/><path fill="#269926" d="M15 379h13v13H15z"/><path fill="#FFFACD" d="M31 382h7v7h-7z"/><path fill="#BF3030" d="M40 379h13v13H40z"/><path fill="#BF3030" d="M52 379h13v13H52z"/><path fill="#BF3030" d="M64 379h13v13H64z"/><path fill="#FFFACD" d="M79 382h7v7h-7z"/><path fill="#269926" d="M88 379h13v13H88z"/><path fill="#FFFACD" d="M103 382h7v7h-7zM115 382h7v7h-7zM128 382h7v7h-7z"/><path fill="#473C8B" d="M140 382h7v7h-7zM152 382h7v7h-7zM164 382h7v7h-7zM176 382h7v7h-7z"/><path fill="#FFFACD" d="M188 382h7v7h-7z"/><path fill="#473C8B" d="M200 382h7v7h-7z"/><path fill="#FFFACD" d="M212 382h7v7h-7z"/><path fill="#473C8B" d="M225 382h7v7h-7z"/><path fill="#FFFACD" d="M237 382h7v7h-7zM249 382h7v7h-7z"/><path fill="#473C8B" d="M261 382h7v7h-7z"/><path fill="#FFFACD" d="M273 382h7v7h-7z"/><path fill="#473C8B" d="M285 382h7v7h-7z"/><path fill="#FFFACD" d="M297 382h7v7h-7zM309 382h7v7h-7z"/><path fill="#473C8B" d="M322 382h7v7h-7z"/><path fill="#FFFACD" d="M334 382h7v7h-7zM346 382h7v7h-7z"/><path fill="#473C8B" d="M358 382h7v7h-7zM370 382h7v7h-7z"/><path fill="#FFFACD" d="M382 382h7v7h-7z"/><path fill="#473C8B" d="M394 382h7v7h-7zM406 382h7v7h-7z"/><path fill="#269926" d="M15 391h13v13H15z"/><path fill="#FFFACD" d="M31 394h7v7h-7zM43 394h7v7h-7zM55 394h7v7h-7zM67 394h7v7h-7zM79 394h7v7h-7z"/><path fill="#269926" d="M88 391h13v13H88z"/><path fill="#FFFACD" d="M103 394h7v7h-7zM115 394h7v7h-7z"/><path fill="#473C8B" d="M128 394h7v7h-7zM140 394h7v7h-7zM152 394h7v7h-7z"/><path fill="#FFFACD" d="M164 394h7v7h-7zM176 394h7v7h-7z"/><path fill="#473C8B" d="M188 394h7v7h-7z"/><path fill="#FFFACD" d="M200 394h7v7h-7z"/><path fill="#473C8B" d="M212 394h7v7h-7z"/><path fill="#FFFACD" d="M225 394h7v7h-7zM237 394h7v7h-7zM249 394h7v7h-7z"/><path fill="#473C8B" d="M261 394h7v7h-7zM273 394h7v7h-7zM285 394h7v7h-7z"/><path fill="#FFFACD" d="M297 394h7v7h-7zM309 394h7v7h-7z"/><path fill="#473C8B" d="M322 394h7v7h-7z"/><path fill="#FFFACD" d="M334 394h7v7h-7z"/><path fill="#473C8B" d="M346 394h7v7h-7zM358 394h7v7h-7zM370 394h7v7h-7z"/><path fill="#FFFACD" d="M382 394h7v7h-7zM394 394h7v7h-7zM406 394h7v7h-7z"/><path fill="#269926" d="M15 403h13v13H15zM28 403h13v13H28z"/><path fill="#269926" d="M40 403h13v13H40z"/><path fill="#269926" d="M52 403h13v13H52z"/><path fill="#269926" d="M64 403h13v13H64z"/><path fill="#269926" d="M76 403h13v13H76z"/><path fill="#269926" d="M88 403h13v13H88z"/><path fill="#FFFACD" d="M103 406h7v7h-7zM115 406h7v7h-7z"/><path fill="#473C8B" d="M128 406h7v7h-7zM140 406h7v7h-7z"/><path fill="#FFFACD" d="M152 406h7v7h-7zM164 406h7v7h-7zM176 406h7v7h-7z"/><path fill="#473C8B" d="M188 406h7v7h-7zM200 406h7v7h-7z"/><path fill="#FFFACD" d="M212 406h7v7h-7zM225 406h7v7h-7z"/><path fill="#473C8B" d="M237 406h7v7h-7zM249 406h7v7h-7z"/><path fill="#FFFACD" d="M261 406h7v7h-7zM273 406h7v7h-7z"/><path fill="#473C8B" d="M285 406h7v7h-7zM297 406h7v7h-7zM309 406h7v7h-7zM322 406h7v7h-7z"/><path fill="#FFFACD" d="M334 406h7v7h-7zM346 406h7v7h-7zM358 406h7v7h-7zM370 406h7v7h-7z"/><path fill="#473C8B" d="M382 406h7v7h-7zM394 406h7v7h-7z"/><path fill="#FFFACD" d="M406 406h7v7h-7z"/><path fill="#FFF8DC" d="M158 158h114v114H158z"/><image xmlns:ns1="http://www.w3.org/1999/xlink" ns1:href="./avatars.png" width="114" height="114" preserveAspectRatio="none" transform="translate(158 158)"/><path fill="#00CED1" d="M0 0h430v15H0zM0 15h15v400H0zM415 15h15v400h-15zM0 415h430v15H0z"/></svg>