<svg xmlns="http://www.w3.org/2000/svg" width="430" height="430" viewBox="0 0 426 426"><path fill="#FFFACD" d="M0 0h426v426H0z"/><path fill="#aa5b71" d="M15 15h12v12H15zM27 15h12v12H27zM39 15h12v12H39zM51 15h12v12H51zM63 15h12v12H63zM75 15h12v12H75zM87 15h12v12H87z"/><path fill="#FFFACD" d="M102 18h6v6h-6z"/><path fill="#473C8B" d="M114 18h6v6h-6z"/><path fill="#FFFACD" d="M126 18h6v6h-6z"/><path fill="#473C8B" d="M138 18h6v6h-6zM150 18h6v6h-6z"/><path fill="#FFFACD" d="M162 18h6v6h-6zM174 18h6v6h-6z"/><path fill="#473C8B" d="M186 18h6v6h-6z"/><path fill="#FFFACD" d="M198 18h6v6h-6zM210 18h6v6h-6zM222 18h6v6h-6z"/><path fill="#473C8B" d="M234 18h6v6h-6z"/><path fill="#FFFACD" d="M246 18h6v6h-6zM258 18h6v6h-6z"/><path fill="#473C8B" d="M270 18h6v6h-6z"/><path fill="#FFFACD" d="M282 18h6v6h-6zM294 18h6v6h-6zM306 18h6v6h-6zM318 18h6v6h-6z"/><path fill="#269926" d="M327 15h12v12h-12zM339 15h12v12h-12zM351 15h12v12h-12zM363 15h12v12h-12zM375 15h12v12h-12zM387 15h12v12h-12zM399 15h12v12h-12z"/><path fill="#aa5b71" d="M15 27h12v12H15z"/><path fill="#FFFACD" d="M30 30h6v6h-6zM42 30h6v6h-6zM54 30h6v6h-6zM66 30h6v6h-6zM78 30h6v6h-6z"/><path fill="#aa5b71" d="M87 27h12v12H87z"/><path fill="#FFFACD" d="M102 30h6v6h-6zM114 30h6v6h-6zM126 30h6v6h-6z"/><path fill="#473C8B" d="M138 30h6v6h-6zM150 30h6v6h-6zM162 30h6v6h-6z"/><path fill="#FFFACD" d="M174 30h6v6h-6zM186 30h6v6h-6z"/><path fill="#473C8B" d="M198 30h6v6h-6z"/><path fill="#FFFACD" d="M210 30h6v6h-6z"/><path fill="#473C8B" d="M222 30h6v6h-6z"/><path fill="#FFFACD" d="M234 30h6v6h-6z"/><path fill="#473C8B" d="M246 30h6v6h-6zM258 30h6v6h-6z"/><path fill="#FFFACD" d="M270 30h6v6h-6z"/><path fill="#473C8B" d="M282 30h6v6h-6z"/><path fill="#FFFACD" d="M294 30h6v6h-6zM306 30h6v6h-6zM318 30h6v6h-6z"/><path fill="#269926" d="M327 27h12v12h-12z"/><path fill="#FFFACD" d="M342 30h6v6h-6zM354 30h6v6h-6zM366 30h6v6h-6zM378 30h6v6h-6zM390 30h6v6h-6z"/><path fill="#269926" d="M399 27h12v12h-12z"/><path fill="#aa5b71" d="M15 39h12v12H15z"/><path fill="#FFFACD" d="M30 42h6v6h-6z"/><path fill="#b7d28d" d="M39 39h12v12H39zM51 39h12v12H51zM63 39h12v12H63z"/><path fill="#FFFACD" d="M78 42h6v6h-6z"/><path fill="#aa5b71" d="M87 39h12v12H87z"/><path fill="#FFFACD" d="M102 42h6v6h-6z"/><path fill="#473C8B" d="M114 42h6v6h-6zM126 42h6v6h-6z"/><path fill="#FFFACD" d="M138 42h6v6h-6zM150 42h6v6h-6zM162 42h6v6h-6z"/><path fill="#473C8B" d="M174 42h6v6h-6zM186 42h6v6h-6zM198 42h6v6h-6z"/><path fill="#FFFACD" d="M210 42h6v6h-6zM222 42h6v6h-6zM234 42h6v6h-6zM246 42h6v6h-6zM258 42h6v6h-6z"/><path fill="#473C8B" d="M270 42h6v6h-6z"/><path fill="#FFFACD" d="M282 42h6v6h-6zM294 42h6v6h-6z"/><path fill="#473C8B" d="M306 42h6v6h-6z"/><path fill="#FFFACD" d="M318 42h6v6h-6z"/><path fill="#269926" d="M327 39h12v12h-12z"/><path fill="#FFFACD" d="M342 42h6v6h-6z"/><path fill="#BF3030" d="M351 39h12v12h-12zM363 39h12v12h-12zM375 39h12v12h-12z"/><path fill="#FFFACD" d="M390 42h6v6h-6z"/><path fill="#269926" d="M399 39h12v12h-12z"/><path fill="#aa5b71" d="M15 51h12v12H15z"/><path fill="#FFFACD" d="M30 54h6v6h-6z"/><path fill="#b7d28d" d="M39 51h12v12H39zM51 51h12v12H51zM63 51h12v12H63z"/><path fill="#FFFACD" d="M78 54h6v6h-6z"/><path fill="#aa5b71" d="M87 51h12v12H87z"/><path fill="#FFFACD" d="M102 54h6v6h-6zM114 54h6v6h-6z"/><path fill="#473C8B" d="M126 54h6v6h-6zM138 54h6v6h-6z"/><path fill="#FFFACD" d="M150 54h6v6h-6zM162 54h6v6h-6zM174 54h6v6h-6zM186 54h6v6h-6z"/><path fill="#473C8B" d="M198 54h6v6h-6z"/><path fill="#FFFACD" d="M210 54h6v6h-6z"/><path fill="#473C8B" d="M222 54h6v6h-6z"/><path fill="#FFFACD" d="M234 54h6v6h-6zM246 54h6v6h-6z"/><path fill="#473C8B" d="M258 54h6v6h-6zM270 54h6v6h-6zM282 54h6v6h-6z"/><path fill="#FFFACD" d="M294 54h6v6h-6z"/><path fill="#473C8B" d="M306 54h6v6h-6z"/><path fill="#FFFACD" d="M318 54h6v6h-6z"/><path fill="#269926" d="M327 51h12v12h-12z"/><path fill="#FFFACD" d="M342 54h6v6h-6z"/><path fill="#BF3030" d="M351 51h12v12h-12zM363 51h12v12h-12zM375 51h12v12h-12z"/><path fill="#FFFACD" d="M390 54h6v6h-6z"/><path fill="#269926" d="M399 51h12v12h-12z"/><path fill="#aa5b71" d="M15 63h12v12H15z"/><path fill="#FFFACD" d="M30 66h6v6h-6z"/><path fill="#b7d28d" d="M39 63h12v12H39zM51 63h12v12H51zM63 63h12v12H63z"/><path fill="#FFFACD" d="M78 66h6v6h-6z"/><path fill="#aa5b71" d="M87 63h12v12H87z"/><path fill="#FFFACD" d="M102 66h6v6h-6z"/><path fill="#473C8B" d="M114 66h6v6h-6z"/><path fill="#FFFACD" d="M126 66h6v6h-6zM138 66h6v6h-6z"/><path fill="#473C8B" d="M150 66h6v6h-6zM162 66h6v6h-6zM174 66h6v6h-6zM186 66h6v6h-6z"/><path fill="#FFFACD" d="M198 66h6v6h-6zM210 66h6v6h-6zM222 66h6v6h-6z"/><path fill="#473C8B" d="M234 66h6v6h-6zM246 66h6v6h-6z"/><path fill="#FFFACD" d="M258 66h6v6h-6z"/><path fill="#473C8B" d="M270 66h6v6h-6z"/><path fill="#FFFACD" d="M282 66h6v6h-6zM294 66h6v6h-6zM306 66h6v6h-6zM318 66h6v6h-6z"/><path fill="#269926" d="M327 63h12v12h-12z"/><path fill="#FFFACD" d="M342 66h6v6h-6z"/><path fill="#BF3030" d="M351 63h12v12h-12zM363 63h12v12h-12zM375 63h12v12h-12z"/><path fill="#FFFACD" d="M390 66h6v6h-6z"/><path fill="#269926" d="M399 63h12v12h-12z"/><path fill="#aa5b71" d="M15 75h12v12H15z"/><path fill="#FFFACD" d="M30 78h6v6h-6zM42 78h6v6h-6zM54 78h6v6h-6zM66 78h6v6h-6zM78 78h6v6h-6z"/><path fill="#aa5b71" d="M87 75h12v12H87z"/><path fill="#FFFACD" d="M102 78h6v6h-6zM114 78h6v6h-6z"/><path fill="#473C8B" d="M126 78h6v6h-6zM138 78h6v6h-6zM150 78h6v6h-6zM162 78h6v6h-6z"/><path fill="#FFFACD" d="M174 78h6v6h-6zM186 78h6v6h-6z"/><path fill="#473C8B" d="M198 78h6v6h-6zM210 78h6v6h-6z"/><path fill="#FFFACD" d="M222 78h6v6h-6zM234 78h6v6h-6z"/><path fill="#473C8B" d="M246 78h6v6h-6z"/><path fill="#FFFACD" d="M258 78h6v6h-6zM270 78h6v6h-6z"/><path fill="#473C8B" d="M282 78h6v6h-6zM294 78h6v6h-6zM306 78h6v6h-6z"/><path fill="#FFFACD" d="M318 78h6v6h-6z"/><path fill="#269926" d="M327 75h12v12h-12z"/><path fill="#FFFACD" d="M342 78h6v6h-6zM354 78h6v6h-6zM366 78h6v6h-6zM378 78h6v6h-6zM390 78h6v6h-6z"/><path fill="#269926" d="M399 75h12v12h-12z"/><path fill="#aa5b71" d="M15 87h12v12H15zM27 87h12v12H27zM39 87h12v12H39zM51 87h12v12H51zM63 87h12v12H63zM75 87h12v12H75zM87 87h12v12H87z"/><path fill="#FFFACD" d="M99 87h12v12H99z"/><path fill="#f60" d="M111 87h12v12h-12z"/><path fill="#FFFACD" d="M123 87h12v12h-12z"/><path fill="#f60" d="M135 87h12v12h-12z"/><path fill="#FFFACD" d="M147 87h12v12h-12z"/><path fill="#f60" d="M159 87h12v12h-12z"/><path fill="#FFFACD" d="M171 87h12v12h-12z"/><path fill="#f60" d="M183 87h12v12h-12z"/><path fill="#FFFACD" d="M195 87h12v12h-12z"/><path fill="#f60" d="M207 87h12v12h-12z"/><path fill="#FFFACD" d="M219 87h12v12h-12z"/><path fill="#f60" d="M231 87h12v12h-12z"/><path fill="#FFFACD" d="M243 87h12v12h-12z"/><path fill="#f60" d="M255 87h12v12h-12z"/><path fill="#FFFACD" d="M267 87h12v12h-12z"/><path fill="#f60" d="M279 87h12v12h-12z"/><path fill="#FFFACD" d="M291 87h12v12h-12z"/><path fill="#f60" d="M303 87h12v12h-12z"/><path fill="#FFFACD" d="M315 87h12v12h-12z"/><path fill="#269926" d="M327 87h12v12h-12zM339 87h12v12h-12zM351 87h12v12h-12zM363 87h12v12h-12zM375 87h12v12h-12zM387 87h12v12h-12zM399 87h12v12h-12z"/><path fill="#FFFACD" d="M18 102h6v6h-6zM30 102h6v6h-6zM42 102h6v6h-6zM54 102h6v6h-6zM66 102h6v6h-6zM78 102h6v6h-6zM87 99h12v12H87zM102 102h6v6h-6z"/><path fill="#473C8B" d="M114 102h6v6h-6zM126 102h6v6h-6z"/><path fill="#FFFACD" d="M138 102h6v6h-6zM150 102h6v6h-6zM162 102h6v6h-6z"/><path fill="#473C8B" d="M174 102h6v6h-6zM186 102h6v6h-6z"/><path fill="#FFFACD" d="M198 102h6v6h-6z"/><path fill="#473C8B" d="M210 102h6v6h-6z"/><path fill="#FFFACD" d="M222 102h6v6h-6zM234 102h6v6h-6z"/><path fill="#473C8B" d="M246 102h6v6h-6z"/><path fill="#FFFACD" d="M258 102h6v6h-6zM270 102h6v6h-6zM282 102h6v6h-6z"/><path fill="#473C8B" d="M294 102h6v6h-6z"/><path fill="#FFFACD" d="M306 102h6v6h-6zM318 102h6v6h-6zM330 102h6v6h-6zM342 102h6v6h-6zM354 102h6v6h-6zM366 102h6v6h-6zM378 102h6v6h-6zM390 102h6v6h-6zM402 102h6v6h-6zM18 114h6v6h-6zM30 114h6v6h-6zM42 114h6v6h-6zM54 114h6v6h-6zM66 114h6v6h-6z"/><path fill="#473C8B" d="M78 114h6v6h-6z"/><path fill="#c03" d="M87 111h12v12H87z"/><path fill="#FFFACD" d="M102 114h6v6h-6zM114 114h6v6h-6z"/><path fill="#473C8B" d="M126 114h6v6h-6zM138 114h6v6h-6z"/><path fill="#FFFACD" d="M150 114h6v6h-6z"/><path fill="#473C8B" d="M162 114h6v6h-6z"/><path fill="#FFFACD" d="M174 114h6v6h-6zM186 114h6v6h-6z"/><path fill="#473C8B" d="M198 114h6v6h-6zM210 114h6v6h-6zM222 114h6v6h-6zM234 114h6v6h-6z"/><path fill="#FFFACD" d="M246 114h6v6h-6z"/><path fill="#473C8B" d="M258 114h6v6h-6z"/><path fill="#FFFACD" d="M270 114h6v6h-6z"/><path fill="#473C8B" d="M282 114h6v6h-6zM294 114h6v6h-6z"/><path fill="#FFFACD" d="M306 114h6v6h-6zM318 114h6v6h-6z"/><path fill="#473C8B" d="M330 114h6v6h-6z"/><path fill="#FFFACD" d="M342 114h6v6h-6z"/><path fill="#473C8B" d="M354 114h6v6h-6z"/><path fill="#FFFACD" d="M366 114h6v6h-6z"/><path fill="#473C8B" d="M378 114h6v6h-6z"/><path fill="#FFFACD" d="M390 114h6v6h-6z"/><path fill="#473C8B" d="M402 114h6v6h-6zM18 126h6v6h-6z"/><path fill="#FFFACD" d="M30 126h6v6h-6zM42 126h6v6h-6zM54 126h6v6h-6zM66 126h6v6h-6zM78 126h6v6h-6zM87 123h12v12H87z"/><path fill="#473C8B" d="M102 126h6v6h-6z"/><path fill="#FFFACD" d="M114 126h6v6h-6z"/><path fill="#473C8B" d="M126 126h6v6h-6z"/><path fill="#FFFACD" d="M138 126h6v6h-6zM150 126h6v6h-6z"/><path fill="#473C8B" d="M162 126h6v6h-6zM174 126h6v6h-6zM186 126h6v6h-6zM198 126h6v6h-6zM210 126h6v6h-6z"/><path fill="#FFFACD" d="M222 126h6v6h-6zM234 126h6v6h-6zM246 126h6v6h-6z"/><path fill="#473C8B" d="M258 126h6v6h-6z"/><path fill="#FFFACD" d="M270 126h6v6h-6z"/><path fill="#473C8B" d="M282 126h6v6h-6zM294 126h6v6h-6z"/><path fill="#FFFACD" d="M306 126h6v6h-6zM318 126h6v6h-6zM330 126h6v6h-6zM342 126h6v6h-6z"/><path fill="#473C8B" d="M354 126h6v6h-6zM366 126h6v6h-6z"/><path fill="#FFFACD" d="M378 126h6v6h-6z"/><path fill="#473C8B" d="M390 126h6v6h-6z"/><path fill="#FFFACD" d="M402 126h6v6h-6z"/><path fill="#473C8B" d="M18 138h6v6h-6z"/><path fill="#FFFACD" d="M30 138h6v6h-6z"/><path fill="#473C8B" d="M42 138h6v6h-6zM54 138h6v6h-6z"/><path fill="#FFFACD" d="M66 138h6v6h-6z"/><path fill="#473C8B" d="M78 138h6v6h-6z"/><path fill="#c03" d="M87 135h12v12H87z"/><path fill="#473C8B" d="M102 138h6v6h-6z"/><path fill="#FFFACD" d="M114 138h6v6h-6z"/><path fill="#473C8B" d="M126 138h6v6h-6z"/><path fill="#FFFACD" d="M138 138h6v6h-6zM150 138h6v6h-6z"/><path fill="#473C8B" d="M162 138h6v6h-6zM174 138h6v6h-6z"/><path fill="#FFFACD" d="M186 138h6v6h-6zM198 138h6v6h-6z"/><path fill="#473C8B" d="M210 138h6v6h-6zM222 138h6v6h-6zM234 138h6v6h-6zM246 138h6v6h-6zM258 138h6v6h-6zM270 138h6v6h-6z"/><path fill="#FFFACD" d="M282 138h6v6h-6zM294 138h6v6h-6zM306 138h6v6h-6zM318 138h6v6h-6z"/><path fill="#473C8B" d="M330 138h6v6h-6z"/><path fill="#FFFACD" d="M342 138h6v6h-6z"/><path fill="#473C8B" d="M354 138h6v6h-6z"/><path fill="#FFFACD" d="M366 138h6v6h-6zM378 138h6v6h-6z"/><path fill="#473C8B" d="M390 138h6v6h-6z"/><path fill="#FFFACD" d="M402 138h6v6h-6zM18 150h6v6h-6z"/><path fill="#473C8B" d="M30 150h6v6h-6z"/><path fill="#FFFACD" d="M42 150h6v6h-6zM54 150h6v6h-6zM66 150h6v6h-6zM78 150h6v6h-6zM87 147h12v12H87zM102 150h6v6h-6zM114 150h6v6h-6z"/><path fill="#473C8B" d="M126 150h6v6h-6z"/><path fill="#FFFACD" d="M138 150h6v6h-6zM150 150h6v6h-6z"/><path fill="#473C8B" d="M162 150h6v6h-6zM174 150h6v6h-6z"/><path fill="#FFFACD" d="M186 150h6v6h-6z"/><path fill="#473C8B" d="M198 150h6v6h-6z"/><path fill="#FFFACD" d="M210 150h6v6h-6z"/><path fill="#473C8B" d="M222 150h6v6h-6z"/><path fill="#FFFACD" d="M234 150h6v6h-6z"/><path fill="#473C8B" d="M246 150h6v6h-6z"/><path fill="#FFFACD" d="M258 150h6v6h-6zM270 150h6v6h-6z"/><path fill="#473C8B" d="M282 150h6v6h-6z"/><path fill="#FFFACD" d="M294 150h6v6h-6z"/><path fill="#473C8B" d="M306 150h6v6h-6z"/><path fill="#FFFACD" d="M318 150h6v6h-6z"/><path fill="#473C8B" d="M330 150h6v6h-6zM342 150h6v6h-6z"/><path fill="#FFFACD" d="M354 150h6v6h-6zM366 150h6v6h-6z"/><path fill="#473C8B" d="M378 150h6v6h-6z"/><path fill="#FFFACD" d="M390 150h6v6h-6zM402 150h6v6h-6zM18 162h6v6h-6zM30 162h6v6h-6z"/><path fill="#473C8B" d="M42 162h6v6h-6z"/><path fill="#FFFACD" d="M54 162h6v6h-6zM66 162h6v6h-6z"/><path fill="#473C8B" d="M78 162h6v6h-6z"/><path fill="#c03" d="M87 159h12v12H87z"/><path fill="#FFFACD" d="M102 162h6v6h-6z"/><path fill="#473C8B" d="M114 162h6v6h-6z"/><path fill="#FFFACD" d="M126 162h6v6h-6z"/><path fill="#473C8B" d="M138 162h6v6h-6z"/><path fill="#FFFACD" d="M150 162h6v6h-6zM162 162h6v6h-6zM174 162h6v6h-6z"/><path fill="#473C8B" d="M186 162h6v6h-6zM198 162h6v6h-6zM210 162h6v6h-6zM222 162h6v6h-6z"/><path fill="#FFFACD" d="M234 162h6v6h-6zM246 162h6v6h-6zM258 162h6v6h-6z"/><path fill="#473C8B" d="M270 162h6v6h-6zM282 162h6v6h-6zM294 162h6v6h-6z"/><path fill="#FFFACD" d="M306 162h6v6h-6zM318 162h6v6h-6z"/><path fill="#473C8B" d="M330 162h6v6h-6z"/><path fill="#FFFACD" d="M342 162h6v6h-6z"/><path fill="#473C8B" d="M354 162h6v6h-6zM366 162h6v6h-6z"/><path fill="#FFFACD" d="M378 162h6v6h-6z"/><path fill="#473C8B" d="M390 162h6v6h-6zM402 162h6v6h-6zM18 174h6v6h-6z"/><path fill="#FFFACD" d="M30 174h6v6h-6z"/><path fill="#473C8B" d="M42 174h6v6h-6z"/><path fill="#FFFACD" d="M54 174h6v6h-6z"/><path fill="#473C8B" d="M66 174h6v6h-6zM78 174h6v6h-6z"/><path fill="#FFFACD" d="M87 171h12v12H87zM102 174h6v6h-6z"/><path fill="#473C8B" d="M114 174h6v6h-6zM126 174h6v6h-6z"/><path fill="#FFFACD" d="M138 174h6v6h-6z"/><path fill="#473C8B" d="M150 174h6v6h-6z"/><path fill="#FFFACD" d="M162 174h6v6h-6z"/><path fill="#473C8B" d="M174 174h6v6h-6z"/><path fill="#FFFACD" d="M186 174h6v6h-6z"/><path fill="#473C8B" d="M198 174h6v6h-6zM210 174h6v6h-6z"/><path fill="#FFFACD" d="M222 174h6v6h-6z"/><path fill="#473C8B" d="M234 174h6v6h-6z"/><path fill="#FFFACD" d="M246 174h6v6h-6zM258 174h6v6h-6zM270 174h6v6h-6z"/><path fill="#473C8B" d="M282 174h6v6h-6zM294 174h6v6h-6z"/><path fill="#FFFACD" d="M306 174h6v6h-6zM318 174h6v6h-6z"/><path fill="#473C8B" d="M330 174h6v6h-6z"/><path fill="#FFFACD" d="M342 174h6v6h-6zM354 174h6v6h-6z"/><path fill="#473C8B" d="M366 174h6v6h-6z"/><path fill="#FFFACD" d="M378 174h6v6h-6z"/><path fill="#473C8B" d="M390 174h6v6h-6zM402 174h6v6h-6zM18 186h6v6h-6z"/><path fill="#FFFACD" d="M30 186h6v6h-6zM42 186h6v6h-6zM54 186h6v6h-6zM66 186h6v6h-6z"/><path fill="#473C8B" d="M78 186h6v6h-6z"/><path fill="#c03" d="M87 183h12v12H87z"/><path fill="#FFFACD" d="M102 186h6v6h-6z"/><path fill="#473C8B" d="M114 186h6v6h-6z"/><path fill="#FFFACD" d="M126 186h6v6h-6z"/><path fill="#473C8B" d="M138 186h6v6h-6z"/><path fill="#FFFACD" d="M150 186h6v6h-6z"/><path fill="#473C8B" d="M162 186h6v6h-6zM174 186h6v6h-6z"/><path fill="#FFFACD" d="M186 186h6v6h-6zM198 186h6v6h-6zM210 186h6v6h-6z"/><path fill="#473C8B" d="M222 186h6v6h-6zM234 186h6v6h-6zM246 186h6v6h-6zM258 186h6v6h-6z"/><path fill="#FFFACD" d="M270 186h6v6h-6zM282 186h6v6h-6zM294 186h6v6h-6zM306 186h6v6h-6z"/><path fill="#473C8B" d="M318 186h6v6h-6zM330 186h6v6h-6z"/><path fill="#FFFACD" d="M342 186h6v6h-6zM354 186h6v6h-6zM366 186h6v6h-6zM378 186h6v6h-6z"/><path fill="#473C8B" d="M390 186h6v6h-6z"/><path fill="#FFFACD" d="M402 186h6v6h-6z"/><path fill="#473C8B" d="M18 198h6v6h-6zM30 198h6v6h-6z"/><path fill="#FFFACD" d="M42 198h6v6h-6z"/><path fill="#473C8B" d="M54 198h6v6h-6z"/><path fill="#FFFACD" d="M66 198h6v6h-6zM78 198h6v6h-6zM87 195h12v12H87zM102 198h6v6h-6z"/><path fill="#473C8B" d="M114 198h6v6h-6zM126 198h6v6h-6zM138 198h6v6h-6zM150 198h6v6h-6z"/><path fill="#FFFACD" d="M162 198h6v6h-6zM174 198h6v6h-6zM186 198h6v6h-6z"/><path fill="#473C8B" d="M198 198h6v6h-6zM210 198h6v6h-6zM222 198h6v6h-6z"/><path fill="#FFFACD" d="M234 198h6v6h-6z"/><path fill="#473C8B" d="M246 198h6v6h-6zM258 198h6v6h-6z"/><path fill="#FFFACD" d="M270 198h6v6h-6zM282 198h6v6h-6z"/><path fill="#473C8B" d="M294 198h6v6h-6zM306 198h6v6h-6zM318 198h6v6h-6z"/><path fill="#FFFACD" d="M330 198h6v6h-6zM342 198h6v6h-6z"/><path fill="#473C8B" d="M354 198h6v6h-6z"/><path fill="#FFFACD" d="M366 198h6v6h-6z"/><path fill="#473C8B" d="M378 198h6v6h-6zM390 198h6v6h-6z"/><path fill="#FFFACD" d="M402 198h6v6h-6zM18 210h6v6h-6zM30 210h6v6h-6z"/><path fill="#473C8B" d="M42 210h6v6h-6z"/><path fill="#FFFACD" d="M54 210h6v6h-6zM66 210h6v6h-6zM78 210h6v6h-6z"/><path fill="#c03" d="M87 207h12v12H87z"/><path fill="#473C8B" d="M102 210h6v6h-6zM114 210h6v6h-6zM126 210h6v6h-6zM138 210h6v6h-6z"/><path fill="#FFFACD" d="M150 210h6v6h-6zM162 210h6v6h-6z"/><path fill="#473C8B" d="M174 210h6v6h-6zM186 210h6v6h-6z"/><path fill="#FFFACD" d="M198 210h6v6h-6zM210 210h6v6h-6z"/><path fill="#473C8B" d="M222 210h6v6h-6zM234 210h6v6h-6z"/><path fill="#FFFACD" d="M246 210h6v6h-6zM258 210h6v6h-6zM270 210h6v6h-6z"/><path fill="#473C8B" d="M282 210h6v6h-6z"/><path fill="#FFFACD" d="M294 210h6v6h-6z"/><path fill="#473C8B" d="M306 210h6v6h-6zM318 210h6v6h-6z"/><path fill="#FFFACD" d="M330 210h6v6h-6z"/><path fill="#473C8B" d="M342 210h6v6h-6zM354 210h6v6h-6z"/><path fill="#FFFACD" d="M366 210h6v6h-6z"/><path fill="#473C8B" d="M378 210h6v6h-6z"/><path fill="#FFFACD" d="M390 210h6v6h-6z"/><path fill="#473C8B" d="M402 210h6v6h-6zM18 222h6v6h-6zM30 222h6v6h-6z"/><path fill="#FFFACD" d="M42 222h6v6h-6z"/><path fill="#473C8B" d="M54 222h6v6h-6z"/><path fill="#FFFACD" d="M66 222h6v6h-6z"/><path fill="#473C8B" d="M78 222h6v6h-6z"/><path fill="#FFFACD" d="M87 219h12v12H87z"/><path fill="#473C8B" d="M102 222h6v6h-6zM114 222h6v6h-6z"/><path fill="#FFFACD" d="M126 222h6v6h-6zM138 222h6v6h-6z"/><path fill="#473C8B" d="M150 222h6v6h-6zM162 222h6v6h-6z"/><path fill="#FFFACD" d="M174 222h6v6h-6z"/><path fill="#473C8B" d="M186 222h6v6h-6zM198 222h6v6h-6z"/><path fill="#FFFACD" d="M210 222h6v6h-6zM222 222h6v6h-6zM234 222h6v6h-6z"/><path fill="#473C8B" d="M246 222h6v6h-6zM258 222h6v6h-6zM270 222h6v6h-6zM282 222h6v6h-6zM294 222h6v6h-6z"/><path fill="#FFFACD" d="M306 222h6v6h-6zM318 222h6v6h-6z"/><path fill="#473C8B" d="M330 222h6v6h-6zM342 222h6v6h-6z"/><path fill="#FFFACD" d="M354 222h6v6h-6z"/><path fill="#473C8B" d="M366 222h6v6h-6zM378 222h6v6h-6z"/><path fill="#FFFACD" d="M390 222h6v6h-6z"/><path fill="#473C8B" d="M402 222h6v6h-6zM18 234h6v6h-6zM30 234h6v6h-6z"/><path fill="#FFFACD" d="M42 234h6v6h-6z"/><path fill="#473C8B" d="M54 234h6v6h-6zM66 234h6v6h-6zM78 234h6v6h-6z"/><path fill="#c03" d="M87 231h12v12H87z"/><path fill="#473C8B" d="M102 234h6v6h-6z"/><path fill="#FFFACD" d="M114 234h6v6h-6z"/><path fill="#473C8B" d="M126 234h6v6h-6z"/><path fill="#FFFACD" d="M138 234h6v6h-6z"/><path fill="#473C8B" d="M150 234h6v6h-6zM162 234h6v6h-6zM174 234h6v6h-6z"/><path fill="#FFFACD" d="M186 234h6v6h-6zM198 234h6v6h-6zM210 234h6v6h-6zM222 234h6v6h-6z"/><path fill="#473C8B" d="M234 234h6v6h-6zM246 234h6v6h-6zM258 234h6v6h-6z"/><path fill="#FFFACD" d="M270 234h6v6h-6zM282 234h6v6h-6z"/><path fill="#473C8B" d="M294 234h6v6h-6z"/><path fill="#FFFACD" d="M306 234h6v6h-6zM318 234h6v6h-6zM330 234h6v6h-6z"/><path fill="#473C8B" d="M342 234h6v6h-6zM354 234h6v6h-6z"/><path fill="#FFFACD" d="M366 234h6v6h-6zM378 234h6v6h-6zM390 234h6v6h-6z"/><path fill="#473C8B" d="M402 234h6v6h-6z"/><path fill="#FFFACD" d="M18 246h6v6h-6z"/><path fill="#473C8B" d="M30 246h6v6h-6z"/><path fill="#FFFACD" d="M42 246h6v6h-6z"/><path fill="#473C8B" d="M54 246h6v6h-6zM66 246h6v6h-6z"/><path fill="#FFFACD" d="M78 246h6v6h-6zM87 243h12v12H87z"/><path fill="#473C8B" d="M102 246h6v6h-6zM114 246h6v6h-6zM126 246h6v6h-6z"/><path fill="#FFFACD" d="M138 246h6v6h-6zM150 246h6v6h-6zM162 246h6v6h-6z"/><path fill="#473C8B" d="M174 246h6v6h-6z"/><path fill="#FFFACD" d="M186 246h6v6h-6zM198 246h6v6h-6z"/><path fill="#473C8B" d="M210 246h6v6h-6z"/><path fill="#FFFACD" d="M222 246h6v6h-6zM234 246h6v6h-6z"/><path fill="#473C8B" d="M246 246h6v6h-6z"/><path fill="#FFFACD" d="M258 246h6v6h-6zM270 246h6v6h-6zM282 246h6v6h-6zM294 246h6v6h-6zM306 246h6v6h-6zM318 246h6v6h-6z"/><path fill="#473C8B" d="M330 246h6v6h-6zM342 246h6v6h-6z"/><path fill="#FFFACD" d="M354 246h6v6h-6z"/><path fill="#473C8B" d="M366 246h6v6h-6zM378 246h6v6h-6zM390 246h6v6h-6zM402 246h6v6h-6z"/><path fill="#FFFACD" d="M18 258h6v6h-6zM30 258h6v6h-6z"/><path fill="#473C8B" d="M42 258h6v6h-6z"/><path fill="#FFFACD" d="M54 258h6v6h-6zM66 258h6v6h-6z"/><path fill="#473C8B" d="M78 258h6v6h-6z"/><path fill="#c03" d="M87 255h12v12H87z"/><path fill="#FFFACD" d="M102 258h6v6h-6zM114 258h6v6h-6zM126 258h6v6h-6z"/><path fill="#473C8B" d="M138 258h6v6h-6z"/><path fill="#FFFACD" d="M150 258h6v6h-6z"/><path fill="#473C8B" d="M162 258h6v6h-6zM174 258h6v6h-6zM186 258h6v6h-6zM198 258h6v6h-6zM210 258h6v6h-6z"/><path fill="#FFFACD" d="M222 258h6v6h-6z"/><path fill="#473C8B" d="M234 258h6v6h-6zM246 258h6v6h-6z"/><path fill="#FFFACD" d="M258 258h6v6h-6zM270 258h6v6h-6z"/><path fill="#473C8B" d="M282 258h6v6h-6z"/><path fill="#FFFACD" d="M294 258h6v6h-6zM306 258h6v6h-6z"/><path fill="#473C8B" d="M318 258h6v6h-6zM330 258h6v6h-6zM342 258h6v6h-6zM354 258h6v6h-6zM366 258h6v6h-6z"/><path fill="#FFFACD" d="M378 258h6v6h-6z"/><path fill="#473C8B" d="M390 258h6v6h-6zM402 258h6v6h-6zM18 270h6v6h-6z"/><path fill="#FFFACD" d="M30 270h6v6h-6zM42 270h6v6h-6zM54 270h6v6h-6z"/><path fill="#473C8B" d="M66 270h6v6h-6zM78 270h6v6h-6z"/><path fill="#FFFACD" d="M87 267h12v12H87zM102 270h6v6h-6zM114 270h6v6h-6z"/><path fill="#473C8B" d="M126 270h6v6h-6z"/><path fill="#FFFACD" d="M138 270h6v6h-6zM150 270h6v6h-6z"/><path fill="#473C8B" d="M162 270h6v6h-6z"/><path fill="#FFFACD" d="M174 270h6v6h-6zM186 270h6v6h-6zM198 270h6v6h-6zM210 270h6v6h-6z"/><path fill="#473C8B" d="M222 270h6v6h-6z"/><path fill="#FFFACD" d="M234 270h6v6h-6z"/><path fill="#473C8B" d="M246 270h6v6h-6zM258 270h6v6h-6zM270 270h6v6h-6zM282 270h6v6h-6z"/><path fill="#FFFACD" d="M294 270h6v6h-6z"/><path fill="#473C8B" d="M306 270h6v6h-6z"/><path fill="#FFFACD" d="M318 270h6v6h-6z"/><path fill="#473C8B" d="M330 270h6v6h-6zM342 270h6v6h-6zM354 270h6v6h-6z"/><path fill="#FFFACD" d="M366 270h6v6h-6z"/><path fill="#473C8B" d="M378 270h6v6h-6z"/><path fill="#FFFACD" d="M390 270h6v6h-6zM402 270h6v6h-6z"/><path fill="#473C8B" d="M18 282h6v6h-6z"/><path fill="#FFFACD" d="M30 282h6v6h-6z"/><path fill="#473C8B" d="M42 282h6v6h-6z"/><path fill="#FFFACD" d="M54 282h6v6h-6zM66 282h6v6h-6zM78 282h6v6h-6z"/><path fill="#c03" d="M87 279h12v12H87z"/><path fill="#FFFACD" d="M102 282h6v6h-6z"/><path fill="#473C8B" d="M114 282h6v6h-6z"/><path fill="#FFFACD" d="M126 282h6v6h-6zM138 282h6v6h-6zM150 282h6v6h-6zM162 282h6v6h-6zM174 282h6v6h-6z"/><path fill="#473C8B" d="M186 282h6v6h-6zM198 282h6v6h-6z"/><path fill="#FFFACD" d="M210 282h6v6h-6z"/><path fill="#473C8B" d="M222 282h6v6h-6zM234 282h6v6h-6zM246 282h6v6h-6z"/><path fill="#FFFACD" d="M258 282h6v6h-6z"/><path fill="#473C8B" d="M270 282h6v6h-6z"/><path fill="#FFFACD" d="M282 282h6v6h-6zM294 282h6v6h-6zM306 282h6v6h-6z"/><path fill="#473C8B" d="M318 282h6v6h-6zM330 282h6v6h-6z"/><path fill="#FFFACD" d="M342 282h6v6h-6z"/><path fill="#473C8B" d="M354 282h6v6h-6z"/><path fill="#FFFACD" d="M366 282h6v6h-6zM378 282h6v6h-6z"/><path fill="#473C8B" d="M390 282h6v6h-6z"/><path fill="#FFFACD" d="M402 282h6v6h-6z"/><path fill="#473C8B" d="M18 294h6v6h-6z"/><path fill="#FFFACD" d="M30 294h6v6h-6zM42 294h6v6h-6zM54 294h6v6h-6zM66 294h6v6h-6z"/><path fill="#473C8B" d="M78 294h6v6h-6z"/><path fill="#FFFACD" d="M87 291h12v12H87z"/><path fill="#473C8B" d="M102 294h6v6h-6zM114 294h6v6h-6zM126 294h6v6h-6z"/><path fill="#FFFACD" d="M138 294h6v6h-6zM150 294h6v6h-6zM162 294h6v6h-6z"/><path fill="#473C8B" d="M174 294h6v6h-6zM186 294h6v6h-6z"/><path fill="#FFFACD" d="M198 294h6v6h-6z"/><path fill="#473C8B" d="M210 294h6v6h-6z"/><path fill="#FFFACD" d="M222 294h6v6h-6zM234 294h6v6h-6z"/><path fill="#473C8B" d="M246 294h6v6h-6z"/><path fill="#FFFACD" d="M258 294h6v6h-6zM270 294h6v6h-6z"/><path fill="#473C8B" d="M282 294h6v6h-6z"/><path fill="#FFFACD" d="M294 294h6v6h-6z"/><path fill="#473C8B" d="M306 294h6v6h-6z"/><path fill="#FFFACD" d="M318 294h6v6h-6z"/><path fill="#473C8B" d="M330 294h6v6h-6zM342 294h6v6h-6zM354 294h6v6h-6zM366 294h6v6h-6zM378 294h6v6h-6zM390 294h6v6h-6zM402 294h6v6h-6zM18 306h6v6h-6zM30 306h6v6h-6z"/><path fill="#FFFACD" d="M42 306h6v6h-6z"/><path fill="#473C8B" d="M54 306h6v6h-6zM66 306h6v6h-6z"/><path fill="#FFFACD" d="M78 306h6v6h-6z"/><path fill="#c03" d="M87 303h12v12H87z"/><path fill="#FFFACD" d="M102 306h6v6h-6z"/><path fill="#473C8B" d="M114 306h6v6h-6zM126 306h6v6h-6z"/><path fill="#FFFACD" d="M138 306h6v6h-6zM150 306h6v6h-6z"/><path fill="#473C8B" d="M162 306h6v6h-6z"/><path fill="#FFFACD" d="M174 306h6v6h-6zM186 306h6v6h-6zM198 306h6v6h-6z"/><path fill="#473C8B" d="M210 306h6v6h-6z"/><path fill="#FFFACD" d="M222 306h6v6h-6zM234 306h6v6h-6z"/><path fill="#473C8B" d="M246 306h6v6h-6zM258 306h6v6h-6z"/><path fill="#FFFACD" d="M270 306h6v6h-6zM282 306h6v6h-6z"/><path fill="#473C8B" d="M294 306h6v6h-6z"/><path fill="#B03060" d="M303 303h12v12h-12zM315 303h12v12h-12zM327 303h12v12h-12zM339 303h12v12h-12zM351 303h12v12h-12z"/><path fill="#473C8B" d="M366 306h6v6h-6z"/><path fill="#FFFACD" d="M378 306h6v6h-6z"/><path fill="#473C8B" d="M390 306h6v6h-6zM402 306h6v6h-6z"/><path fill="#FFFACD" d="M18 318h6v6h-6zM30 318h6v6h-6zM42 318h6v6h-6zM54 318h6v6h-6zM66 318h6v6h-6zM78 318h6v6h-6zM87 315h12v12H87zM102 318h6v6h-6z"/><path fill="#473C8B" d="M114 318h6v6h-6z"/><path fill="#FFFACD" d="M126 318h6v6h-6zM138 318h6v6h-6zM150 318h6v6h-6z"/><path fill="#473C8B" d="M162 318h6v6h-6z"/><path fill="#FFFACD" d="M174 318h6v6h-6zM186 318h6v6h-6zM198 318h6v6h-6z"/><path fill="#473C8B" d="M210 318h6v6h-6z"/><path fill="#FFFACD" d="M222 318h6v6h-6zM234 318h6v6h-6z"/><path fill="#473C8B" d="M246 318h6v6h-6zM258 318h6v6h-6zM270 318h6v6h-6z"/><path fill="#FFFACD" d="M282 318h6v6h-6zM294 318h6v6h-6z"/><path fill="#B03060" d="M303 315h12v12h-12z"/><path fill="#FFFACD" d="M318 318h6v6h-6zM330 318h6v6h-6zM342 318h6v6h-6z"/><path fill="#B03060" d="M351 315h12v12h-12z"/><path fill="#473C8B" d="M366 318h6v6h-6z"/><path fill="#FFFACD" d="M378 318h6v6h-6z"/><path fill="#473C8B" d="M390 318h6v6h-6zM402 318h6v6h-6z"/><path fill="#269926" d="M15 327h12v12H15zM27 327h12v12H27zM39 327h12v12H39zM51 327h12v12H51zM63 327h12v12H63zM75 327h12v12H75zM87 327h12v12H87z"/><path fill="#FFFACD" d="M102 330h6v6h-6zM114 330h6v6h-6zM126 330h6v6h-6zM138 330h6v6h-6z"/><path fill="#473C8B" d="M150 330h6v6h-6zM162 330h6v6h-6z"/><path fill="#FFFACD" d="M174 330h6v6h-6z"/><path fill="#473C8B" d="M186 330h6v6h-6z"/><path fill="#FFFACD" d="M198 330h6v6h-6zM210 330h6v6h-6zM222 330h6v6h-6z"/><path fill="#473C8B" d="M234 330h6v6h-6z"/><path fill="#FFFACD" d="M246 330h6v6h-6z"/><path fill="#473C8B" d="M258 330h6v6h-6z"/><path fill="#FFFACD" d="M270 330h6v6h-6z"/><path fill="#473C8B" d="M282 330h6v6h-6zM294 330h6v6h-6z"/><path fill="#B03060" d="M303 327h12v12h-12z"/><path fill="#FFFACD" d="M318 330h6v6h-6z"/><path fill="#009ACD" d="M327 327h12v12h-12z"/><path fill="#FFFACD" d="M342 330h6v6h-6z"/><path fill="#B03060" d="M351 327h12v12h-12z"/><path fill="#473C8B" d="M366 330h6v6h-6z"/><path fill="#FFFACD" d="M378 330h6v6h-6z"/><path fill="#473C8B" d="M390 330h6v6h-6z"/><path fill="#FFFACD" d="M402 330h6v6h-6z"/><path fill="#269926" d="M15 339h12v12H15z"/><path fill="#FFFACD" d="M30 342h6v6h-6zM42 342h6v6h-6zM54 342h6v6h-6zM66 342h6v6h-6zM78 342h6v6h-6z"/><path fill="#269926" d="M87 339h12v12H87z"/><path fill="#FFFACD" d="M102 342h6v6h-6z"/><path fill="#473C8B" d="M114 342h6v6h-6zM126 342h6v6h-6z"/><path fill="#FFFACD" d="M138 342h6v6h-6z"/><path fill="#473C8B" d="M150 342h6v6h-6z"/><path fill="#FFFACD" d="M162 342h6v6h-6zM174 342h6v6h-6z"/><path fill="#473C8B" d="M186 342h6v6h-6z"/><path fill="#FFFACD" d="M198 342h6v6h-6z"/><path fill="#473C8B" d="M210 342h6v6h-6z"/><path fill="#FFFACD" d="M222 342h6v6h-6zM234 342h6v6h-6zM246 342h6v6h-6zM258 342h6v6h-6z"/><path fill="#473C8B" d="M270 342h6v6h-6zM282 342h6v6h-6zM294 342h6v6h-6z"/><path fill="#B03060" d="M303 339h12v12h-12z"/><path fill="#FFFACD" d="M318 342h6v6h-6zM330 342h6v6h-6zM342 342h6v6h-6z"/><path fill="#B03060" d="M351 339h12v12h-12z"/><path fill="#473C8B" d="M366 342h6v6h-6zM378 342h6v6h-6zM390 342h6v6h-6zM402 342h6v6h-6z"/><path fill="#269926" d="M15 351h12v12H15z"/><path fill="#FFFACD" d="M30 354h6v6h-6z"/><path fill="#BF3030" d="M39 351h12v12H39zM51 351h12v12H51zM63 351h12v12H63z"/><path fill="#FFFACD" d="M78 354h6v6h-6z"/><path fill="#269926" d="M87 351h12v12H87z"/><path fill="#FFFACD" d="M102 354h6v6h-6zM114 354h6v6h-6zM126 354h6v6h-6zM138 354h6v6h-6z"/><path fill="#473C8B" d="M150 354h6v6h-6zM162 354h6v6h-6zM174 354h6v6h-6z"/><path fill="#FFFACD" d="M186 354h6v6h-6zM198 354h6v6h-6z"/><path fill="#473C8B" d="M210 354h6v6h-6zM222 354h6v6h-6z"/><path fill="#FFFACD" d="M234 354h6v6h-6z"/><path fill="#473C8B" d="M246 354h6v6h-6z"/><path fill="#FFFACD" d="M258 354h6v6h-6z"/><path fill="#473C8B" d="M270 354h6v6h-6zM282 354h6v6h-6z"/><path fill="#FFFACD" d="M294 354h6v6h-6z"/><path fill="#B03060" d="M303 351h12v12h-12zM315 351h12v12h-12zM327 351h12v12h-12zM339 351h12v12h-12zM351 351h12v12h-12z"/><path fill="#FFFACD" d="M366 354h6v6h-6zM378 354h6v6h-6zM390 354h6v6h-6z"/><path fill="#473C8B" d="M402 354h6v6h-6z"/><path fill="#269926" d="M15 363h12v12H15z"/><path fill="#FFFACD" d="M30 366h6v6h-6z"/><path fill="#BF3030" d="M39 363h12v12H39zM51 363h12v12H51zM63 363h12v12H63z"/><path fill="#FFFACD" d="M78 366h6v6h-6z"/><path fill="#269926" d="M87 363h12v12H87z"/><path fill="#FFFACD" d="M102 366h6v6h-6zM114 366h6v6h-6zM126 366h6v6h-6zM138 366h6v6h-6zM150 366h6v6h-6zM162 366h6v6h-6z"/><path fill="#473C8B" d="M174 366h6v6h-6zM186 366h6v6h-6z"/><path fill="#FFFACD" d="M198 366h6v6h-6zM210 366h6v6h-6zM222 366h6v6h-6zM234 366h6v6h-6zM246 366h6v6h-6z"/><path fill="#473C8B" d="M258 366h6v6h-6z"/><path fill="#FFFACD" d="M270 366h6v6h-6zM282 366h6v6h-6zM294 366h6v6h-6zM306 366h6v6h-6z"/><path fill="#473C8B" d="M318 366h6v6h-6z"/><path fill="#FFFACD" d="M330 366h6v6h-6z"/><path fill="#473C8B" d="M342 366h6v6h-6zM354 366h6v6h-6zM366 366h6v6h-6z"/><path fill="#FFFACD" d="M378 366h6v6h-6z"/><path fill="#473C8B" d="M390 366h6v6h-6z"/><path fill="#FFFACD" d="M402 366h6v6h-6z"/><path fill="#269926" d="M15 375h12v12H15z"/><path fill="#FFFACD" d="M30 378h6v6h-6z"/><path fill="#BF3030" d="M39 375h12v12H39zM51 375h12v12H51zM63 375h12v12H63z"/><path fill="#FFFACD" d="M78 378h6v6h-6z"/><path fill="#269926" d="M87 375h12v12H87z"/><path fill="#FFFACD" d="M102 378h6v6h-6zM114 378h6v6h-6zM126 378h6v6h-6z"/><path fill="#473C8B" d="M138 378h6v6h-6zM150 378h6v6h-6zM162 378h6v6h-6zM174 378h6v6h-6z"/><path fill="#FFFACD" d="M186 378h6v6h-6z"/><path fill="#473C8B" d="M198 378h6v6h-6z"/><path fill="#FFFACD" d="M210 378h6v6h-6z"/><path fill="#473C8B" d="M222 378h6v6h-6z"/><path fill="#FFFACD" d="M234 378h6v6h-6zM246 378h6v6h-6z"/><path fill="#473C8B" d="M258 378h6v6h-6z"/><path fill="#FFFACD" d="M270 378h6v6h-6z"/><path fill="#473C8B" d="M282 378h6v6h-6z"/><path fill="#FFFACD" d="M294 378h6v6h-6zM306 378h6v6h-6z"/><path fill="#473C8B" d="M318 378h6v6h-6z"/><path fill="#FFFACD" d="M330 378h6v6h-6zM342 378h6v6h-6z"/><path fill="#473C8B" d="M354 378h6v6h-6zM366 378h6v6h-6z"/><path fill="#FFFACD" d="M378 378h6v6h-6z"/><path fill="#473C8B" d="M390 378h6v6h-6zM402 378h6v6h-6z"/><path fill="#269926" d="M15 387h12v12H15z"/><path fill="#FFFACD" d="M30 390h6v6h-6zM42 390h6v6h-6zM54 390h6v6h-6zM66 390h6v6h-6zM78 390h6v6h-6z"/><path fill="#269926" d="M87 387h12v12H87z"/><path fill="#FFFACD" d="M102 390h6v6h-6zM114 390h6v6h-6z"/><path fill="#473C8B" d="M126 390h6v6h-6zM138 390h6v6h-6zM150 390h6v6h-6z"/><path fill="#FFFACD" d="M162 390h6v6h-6zM174 390h6v6h-6z"/><path fill="#473C8B" d="M186 390h6v6h-6z"/><path fill="#FFFACD" d="M198 390h6v6h-6z"/><path fill="#473C8B" d="M210 390h6v6h-6z"/><path fill="#FFFACD" d="M222 390h6v6h-6zM234 390h6v6h-6zM246 390h6v6h-6z"/><path fill="#473C8B" d="M258 390h6v6h-6zM270 390h6v6h-6zM282 390h6v6h-6z"/><path fill="#FFFACD" d="M294 390h6v6h-6zM306 390h6v6h-6z"/><path fill="#473C8B" d="M318 390h6v6h-6z"/><path fill="#FFFACD" d="M330 390h6v6h-6z"/><path fill="#473C8B" d="M342 390h6v6h-6zM354 390h6v6h-6zM366 390h6v6h-6z"/><path fill="#FFFACD" d="M378 390h6v6h-6zM390 390h6v6h-6zM402 390h6v6h-6z"/><path fill="#269926" d="M15 399h12v12H15zM27 399h12v12H27zM39 399h12v12H39zM51 399h12v12H51zM63 399h12v12H63zM75 399h12v12H75zM87 399h12v12H87z"/><path fill="#FFFACD" d="M102 402h6v6h-6zM114 402h6v6h-6z"/><path fill="#473C8B" d="M126 402h6v6h-6zM138 402h6v6h-6z"/><path fill="#FFFACD" d="M150 402h6v6h-6zM162 402h6v6h-6zM174 402h6v6h-6z"/><path fill="#473C8B" d="M186 402h6v6h-6zM198 402h6v6h-6z"/><path fill="#FFFACD" d="M210 402h6v6h-6zM222 402h6v6h-6z"/><path fill="#473C8B" d="M234 402h6v6h-6zM246 402h6v6h-6z"/><path fill="#FFFACD" d="M258 402h6v6h-6zM270 402h6v6h-6z"/><path fill="#473C8B" d="M282 402h6v6h-6zM294 402h6v6h-6zM306 402h6v6h-6zM318 402h6v6h-6z"/><path fill="#FFFACD" d="M330 402h6v6h-6zM342 402h6v6h-6zM354 402h6v6h-6zM366 402h6v6h-6z"/><path fill="#473C8B" d="M378 402h6v6h-6zM390 402h6v6h-6z"/><path fill="#FFFACD" d="M402 402h6v6h-6z"/><path fill="#FFF8DC" d="M156 156h114v114H156z"/><image xmlns:ns1="http://www.w3.org/1999/xlink" ns1:href="./avatars.png" width="114" height="114" preserveAspectRatio="none" transform="translate(156 156)"/><path fill="#00CED1" d="M0 0h426v15H0zM0 15h15v396H0zM411 15h15v396h-15zM0 411h426v15H0z"/></svg>